<?xml version="1.1" encoding="utf-8"?>
<!-- Generator: Adobe Illustrator 27.5.0, SVG Export Plug-In . SVG Version: 6.00 Build 0)  -->
<svg version="1.1" id="Capa_1" xmlns="http://www.w3.org/2000/svg"
    xmlns:xlink="http://www.w3.org/1999/xlink" x="0px" y="0px"
    viewBox="0 0 425.2 425.2" style="enable-background:new 0 0 425.2 425.2;" xml:space="preserve">
<g id="bonequinho">
                    <g>

                        <ellipse style="fill:#91A91A;" cx="224.256" cy="367.572" rx="187.687" ry="27.622" />
                        <path style="fill:#91A91A;" d="M49.54,360.076c3.052-2.781-13.933-22.289-16.537-26.001c5.624-1.851,13.921,11.594,16.019,15.897
		C43.49,334.613,35.438,316.174,40,299.315c4.568,15.068,9.373,30.72,12.053,46.622c0.408-7.439,2.151-15.016,2.396-22.571
		c4.351,4.943,1.994,15.077,2.391,20.857c3.016-3.152,5.593-11.045,5.119-15.518c3.346,6.358,0.906,13.949,1.614,20.541
		c2.147-1.242,5.003-3.331,5.231-6.092c0.875,1.65,1.055,4.53,1.559,6.646c0.969-0.772,1.557-2.561,2.168-3.897
		c0.683,0.886,2.148,1.469,2.906,2.229c0.146-1.05,1.059-2.419,1.467-3.427c0.688,0.724,2.226,1.722,2.863,2.575
		c-0.075-1.543,0.693-2.214,1.219-3.302c1.254,1.02,2.119,2.798,3.168,3.94c0.941-3.776,3.289-3.408,4.755,0.377
		c1.618-4.663,2.346-2.707,5.641-0.117c-0.142-1.149,0.661-2.376,0.771-3.217c2.119,0.857,3.148,3.86,4.392,5.842" />
                        <path style="fill:#91A91A;" d="M310.945,352.137c2.396-1.77-8.347-17.041-9.942-19.9c4.177-0.91,9.134,9.361,10.321,12.607
		c-2.829-11.44-7.24-25.28-2.711-37.047c2.16,11.161,4.445,22.757,5.188,34.375c0.848-5.311,2.661-10.623,3.399-16.029
		c2.757,3.874,0.312,10.974,0.165,15.154c2.4-2.04,4.839-7.516,4.83-10.763c1.93,4.814-0.386,10.085-0.369,14.871
		c1.635-0.733,3.842-2.021,4.211-3.984c0.504,1.25,0.42,3.331,0.625,4.886c0.752-0.482,1.309-1.723,1.846-2.637
		c0.424,0.688,1.433,1.215,1.922,1.818c0.184-0.744,0.94-1.659,1.307-2.354c0.441,0.572,1.471,1.402,1.865,2.063
		c0.061-1.113,0.663-1.538,1.121-2.279c0.824,0.825,1.314,2.167,1.98,3.065c0.957-2.642,2.615-2.202,3.388,0.624
		c1.509-3.229,1.886-1.769,4.059,0.335c-0.016-0.836,0.652-1.656,0.792-2.252c1.459,0.771,1.975,3.007,2.721,4.522" />
                    </g>
                    <g>
                        <path style="opacity:0.3;fill:#448C96;"
                            d="M198.097,361.246c0,6.279-27.061,11.37-60.443,11.37
		c-33.381,0-60.442-5.09-60.442-11.37c0-6.278,27.062-11.368,60.442-11.368C171.036,349.877,198.097,354.967,198.097,361.246z" />
                        <g>
                            <g>
                                <g>
                                    <g>
                                        <g>
                                            <g>
                                                <path style="fill:#AC764A;" d="M169.634,127.647l10.223,65.387l0.07,0.446v0.302l0.074,37.203
								c0.003,1.406-1.134,2.547-2.539,2.55c-1.234,0.002-2.266-0.875-2.5-2.041l-0.082-0.413c-0.311-1.544-0.596-3.089-0.84-4.635
								l-0.777-4.636l-1.283-9.277c-0.22-1.546-0.428-3.092-0.592-4.64l-0.534-4.641c-0.177-1.547-0.312-3.094-0.47-4.642
								l-0.46-4.642l0.071,0.747l-3.37-16.208l-1.688-8.104c-0.58-2.698-1.1-5.407-1.606-8.118l-3.078-16.258l-1.406-8.152
								c-0.482-2.714-0.927-5.436-1.344-8.162l-0.03-0.186c-0.513-3.358,1.792-6.498,5.152-7.013
								C165.982,122.002,169.118,124.289,169.634,127.647z" />
                                            </g>
                                        </g>
                                    </g>
                                </g>
                                <g>
                                    <path style="fill:#AC764A;" d="M69.986,84.462c-2.916,0.271-5.534-2.231-5.846-5.59c-0.313-3.358,1.796-6.301,4.711-6.575
					c2.915-0.272,5.532,2.231,5.847,5.591C75.011,81.247,72.899,84.188,69.986,84.462z" />
                                    <g>
                                        <g>
                                            <g>
                                                <path style="fill:#AC764A;" d="M122.056,131.998l-49.659,4.292l-5.419,0.468l-0.103-5.286l-0.98-50.833
								c-0.027-1.413,1.096-2.58,2.509-2.607c1.326-0.026,2.436,0.962,2.59,2.253l0.021,0.193l5.86,50.68l-5.521-4.817l49.419-6.58
								c3.37-0.449,6.465,1.919,6.914,5.289c0.449,3.37-1.92,6.465-5.289,6.914c-0.086,0.012-0.174,0.021-0.261,0.029
								L122.056,131.998z" />
                                            </g>
                                        </g>
                                    </g>
                                    <g>
                                        <g>

                                            <rect x="68.105" y="40.979"
                                                transform="matrix(0.0147 -0.9999 0.9999 0.0147 -5.115 143.9923)"
                                                style="fill:#93A6B0;" width="4.8" height="67.225" />

                                            <rect x="69.287" y="42.178"
                                                transform="matrix(0.0147 -0.9999 0.9999 0.0147 -6.3314 145.1563)"
                                                style="opacity:0.3;fill:#B2B2B2;" width="2.402" height="67.225" />

                                            <rect x="69.845" y="42.745"
                                                transform="matrix(0.0147 -0.9999 0.9999 0.0147 -6.9077 145.7058)"
                                                style="opacity:0.3;fill:#B2B2B2;" width="1.267" height="67.225" />
                                        </g>
                                        <g>
                                            <g>
                                                <g>
                                                    <path style="fill:#314B5C;" d="M46.372,82.043c-0.012,0.678-0.569,1.221-1.248,1.212l-5.779-0.086
									c-0.68-0.01-1.221-0.569-1.21-1.247l0.229-15.61c0.01-0.68,0.566-1.221,1.246-1.211l5.778,0.085
									c0.679,0.01,1.222,0.568,1.211,1.247L46.372,82.043z" />
                                                </g>
                                                <path style="opacity:0.3;fill:#314B5C;"
                                                    d="M43.31,79.891c-0.565-0.007-1.02-0.473-1.012-1.039l0.191-13.035
								c0.004-0.259,0.107-0.491,0.269-0.668l-3.147-0.047c-0.68-0.01-1.236,0.531-1.246,1.211l-0.229,15.61
								c-0.011,0.677,0.53,1.236,1.21,1.247l5.779,0.086c0.679,0.009,1.236-0.534,1.248-1.212l0.031-2.104L43.31,79.891z" />
                                                <path style="opacity:0.3;fill:#314B5C;"
                                                    d="M41.541,81.243c-0.617-0.008-1.107-0.517-1.098-1.133l0.207-14.167
								c0.004-0.331,0.154-0.62,0.388-0.821l-1.428-0.021c-0.68-0.01-1.236,0.531-1.246,1.211l-0.229,15.61
								c-0.011,0.677,0.53,1.236,1.21,1.247l5.779,0.086c0.679,0.009,1.236-0.534,1.248-1.212l0.009-0.728L41.541,81.243z" />
                                                <path style="opacity:0.3;fill:#FFFFFF;" d="M46.448,77.698c-0.004,0.186-0.158,0.334-0.343,0.332l-2.136-0.032
								c-0.186-0.002-0.333-0.156-0.333-0.34l0.126-8.393c0.001-0.185,0.156-0.331,0.34-0.329l2.136,0.031
								c0.186,0.003,0.335,0.155,0.335,0.339L46.448,77.698z" />
                                            </g>
                                            <g>
                                                <g>
                                                    <path style="fill:#314B5C;" d="M59.534,85.659c-0.015,0.977-0.817,1.757-1.794,1.742l-8.311-0.122
									c-0.977-0.015-1.758-0.819-1.741-1.794l0.329-22.454c0.015-0.978,0.817-1.756,1.794-1.743l8.311,0.123
									c0.977,0.015,1.756,0.817,1.742,1.794L59.534,85.659z" />
                                                </g>
                                                <path style="opacity:0.3;fill:#314B5C;"
                                                    d="M55.132,82.565c-0.816-0.012-1.466-0.682-1.454-1.497l0.275-18.749
								c0.004-0.374,0.152-0.709,0.384-0.963l-4.525-0.067c-0.977-0.014-1.779,0.765-1.794,1.743l-0.329,22.454
								c-0.017,0.975,0.764,1.78,1.741,1.794l8.311,0.122c0.977,0.015,1.779-0.765,1.794-1.742l0.045-3.027L55.132,82.565z" />
                                                <path style="opacity:0.3;fill:#314B5C;"
                                                    d="M52.588,84.507c-0.884-0.013-1.593-0.742-1.579-1.627l0.299-20.378
								c0.008-0.475,0.224-0.895,0.556-1.183l-2.052-0.03c-0.977-0.014-1.779,0.765-1.794,1.743l-0.329,22.454
								c-0.017,0.975,0.764,1.78,1.741,1.794l8.311,0.122c0.977,0.015,1.779-0.765,1.794-1.742l0.015-1.049L52.588,84.507z" />
                                                <path style="opacity:0.3;fill:#FFFFFF;" d="M59.644,79.411c-0.004,0.266-0.224,0.48-0.49,0.476l-3.071-0.045
								c-0.266-0.002-0.479-0.224-0.477-0.491l0.179-12.07c0.004-0.267,0.224-0.479,0.489-0.477l3.072,0.045
								c0.266,0.004,0.479,0.225,0.475,0.49L59.644,79.411z" />
                                            </g>
                                        </g>
                                        <g>
                                            <g>
                                                <g>
                                                    <path style="fill:#314B5C;" d="M94.339,82.748c-0.012,0.677,0.53,1.236,1.209,1.247l5.779,0.084
									c0.68,0.009,1.237-0.533,1.247-1.212l0.228-15.609c0.01-0.679-0.529-1.235-1.209-1.246l-5.777-0.084
									c-0.68-0.011-1.237,0.53-1.247,1.21L94.339,82.748z" />
                                                </g>
                                                <path style="opacity:0.3;fill:#314B5C;"
                                                    d="M97.462,80.688c0.566,0.008,1.033-0.443,1.041-1.011l0.191-13.034
								c0.002-0.259-0.094-0.496-0.249-0.677l3.147,0.045c0.68,0.011,1.219,0.567,1.209,1.246l-0.228,15.609
								c-0.01,0.68-0.567,1.222-1.247,1.212l-5.779-0.084c-0.679-0.011-1.221-0.57-1.209-1.247l0.03-2.106L97.462,80.688z" />
                                                <path style="opacity:0.3;fill:#314B5C;"
                                                    d="M99.188,82.091c0.615,0.008,1.123-0.485,1.133-1.101l0.208-14.166
								c0.005-0.331-0.139-0.624-0.363-0.834l1.427,0.021c0.68,0.011,1.219,0.567,1.209,1.246l-0.228,15.609
								c-0.01,0.68-0.567,1.222-1.247,1.212l-5.779-0.084c-0.679-0.011-1.221-0.57-1.209-1.247l0.012-0.729L99.188,82.091z" />
                                                <path style="opacity:0.3;fill:#FFFFFF;" d="M94.389,78.403c-0.001,0.184,0.146,0.337,0.331,0.341l2.137,0.03
								c0.186,0.003,0.337-0.146,0.341-0.331l0.122-8.391c0.003-0.184-0.146-0.336-0.331-0.339l-2.136-0.032
								c-0.184-0.003-0.338,0.144-0.34,0.328L94.389,78.403z" />
                                            </g>
                                            <g>
                                                <g>
                                                    <path style="fill:#314B5C;" d="M81.073,85.975c-0.015,0.977,0.765,1.78,1.742,1.795l8.311,0.121
									c0.977,0.016,1.779-0.767,1.794-1.742l0.331-22.454c0.015-0.976-0.767-1.778-1.744-1.793l-8.31-0.122
									c-0.978-0.015-1.78,0.764-1.794,1.74L81.073,85.975z" />
                                                </g>
                                                <path style="opacity:0.3;fill:#314B5C;"
                                                    d="M85.565,83.013c0.814,0.012,1.484-0.639,1.498-1.454l0.275-18.75
								c0.006-0.373-0.132-0.712-0.357-0.974l4.525,0.066c0.978,0.015,1.759,0.817,1.744,1.793L92.92,86.149
								c-0.015,0.975-0.817,1.757-1.794,1.742l-8.311-0.121c-0.978-0.015-1.757-0.818-1.742-1.795l0.045-3.028L85.565,83.013z" />
                                                <path style="opacity:0.3;fill:#314B5C;"
                                                    d="M88.048,85.029c0.889,0.012,1.615-0.693,1.629-1.581l0.299-20.377
								c0.008-0.475-0.195-0.901-0.519-1.199l2.05,0.031c0.978,0.015,1.759,0.817,1.744,1.793L92.92,86.149
								c-0.015,0.975-0.817,1.757-1.794,1.742l-8.311-0.121c-0.978-0.015-1.757-0.818-1.742-1.795l0.015-1.048L88.048,85.029z" />
                                                <path style="opacity:0.3;fill:#FFFFFF;" d="M81.147,79.726c-0.003,0.267,0.21,0.488,0.478,0.491l3.07,0.045
								c0.267,0.003,0.484-0.21,0.488-0.476l0.179-12.072c0.004-0.266-0.209-0.484-0.475-0.489l-3.072-0.046
								c-0.268-0.003-0.486,0.21-0.488,0.477L81.147,79.726z" />
                                            </g>
                                        </g>
                                        <polyline
                                            style="fill:none;stroke:#FFFFFF;stroke-width:1.0532;stroke-linecap:round;stroke-miterlimit:10;"
                                            points="
						55.847,63.004 57.866,63.032 57.607,80.51 					" />
                                        <polyline
                                            style="fill:none;stroke:#FFFFFF;stroke-width:1.0532;stroke-linecap:round;stroke-miterlimit:10;"
                                            points="
						83.822,63.415 85.84,63.444 85.584,80.92 					" />
                                        <polyline
                                            style="fill:none;stroke:#FFFFFF;stroke-width:0.5266;stroke-linecap:round;stroke-miterlimit:10;"
                                            points="
						43.187,66.65 45.205,66.679 45.026,78.643 					" />
                                        <polyline
                                            style="fill:none;stroke:#FFFFFF;stroke-width:0.5266;stroke-linecap:round;stroke-miterlimit:10;"
                                            points="
						95.339,67.415 97.357,67.446 97.183,79.411 					" />
                                    </g>
                                    <g>
                                        <g>
                                            <g>
                                                <path style="fill:#AC764A;" d="M66.444,69.53c0.025-0.697-0.521-1.283-1.219-1.309l0,0c-0.697-0.025-1.283,0.521-1.306,1.218
								l-0.145,4.057c-0.024,0.696,0.519,1.282,1.215,1.306l0,0c0.697,0.025,1.283-0.521,1.308-1.215L66.444,69.53z" />
                                            </g>
                                        </g>
                                        <g>
                                            <g>
                                                <path style="fill:#AC764A;" d="M69.481,69.835c0.031-0.822-0.512-1.509-1.212-1.533l0,0
								c-0.692-0.025-1.284,0.621-1.313,1.444l-0.171,4.783c-0.025,0.818,0.514,1.507,1.21,1.532l0,0
								c0.698,0.023,1.286-0.622,1.315-1.442L69.481,69.835z" />
                                            </g>
                                        </g>
                                        <g>
                                            <g>
                                                <path style="fill:#AC764A;" d="M72.718,69.593c0.026-0.641-0.521-1.183-1.221-1.207l0,0c-0.695-0.024-1.28,0.475-1.303,1.117
								l-0.132,3.731c-0.021,0.64,0.522,1.181,1.222,1.206l0,0c0.694,0.025,1.28-0.475,1.303-1.115L72.718,69.593z" />
                                            </g>
                                        </g>
                                        <g>
                                            <g>
                                                <path style="fill:#AC764A;" d="M75.696,69.518c0.019-0.556-0.528-1.028-1.229-1.052l0,0
								c-0.694-0.023-1.279,0.404-1.296,0.961l-0.09,2.324c-0.021,0.557,0.528,1.027,1.226,1.051l0,0
								c0.695,0.025,1.277-0.404,1.298-0.961L75.696,69.518z" />
                                            </g>
                                        </g>
                                    </g>
                                </g>
                                <g>
                                    <polygon style="fill:#AC764A;"
                                        points="121.504,226.917 122.277,355.848 129.507,355.848 142.333,226.917 				" />
                                    <g>
                                        <path style="fill:#AC764A;" d="M122.952,350.303l0.096,5.886l-16.785,6.265c0,0-2.781,1.021-1.609,2.49
						c0,0,4.225,3.325,10.928,0.75l10.4-5.397l3.54-1.811l0.445-8.183H122.952z" />
                                    </g>
                                    <g>
                                        <g>
                                            <path style="fill:#174365;" d="M125.684,357.625c-0.312-0.037-0.586-0.237-0.584-0.581c0.014-1.426-2.185-3.051-3.853-2.056
							l0,0l-15.1,7.161c0,0-3.728,1.326-1.494,2.794c0,0,4.316,3.928,11.021,1.351l10.604-4.815l3.243-2.993l0.232-2.648
							C128.689,356.897,126.906,357.765,125.684,357.625z" />
                                        </g>
                                        <path style="fill:#00B1C3;" d="M118.02,360.742c3.317-1.984,4.933-2.723,7.001-4.192c-0.407-1.27-2.297-2.442-3.773-1.56
						l-12.518,5.937C111.384,363.301,113.455,363.471,118.02,360.742z" />
                                        <path style="fill:#E9CFCC;" d="M104.036,363.616c-0.068,0.082,0.277,0.588,0.32,0.645c0.247,0.322,0.618,0.483,0.963,0.205
						c0.191-0.154,0.358-0.395,0.601-0.462c0.409-0.112,0.877,0.237,1.247,0.381c0.547,0.212,1.627,0.568,1.303,1.413
						c0,0-0.102,0.677,2.213,0.79c0,0,7.771-0.105,12.995-5.137c0,0,6.197-2.163,5.927-3.515c0,0,1.516,3.083-5.138,5.357
						c-0.144,0.049-0.295,0.192-0.417,0.277c-0.286,0.2-0.57,0.405-0.858,0.604c-0.478,0.331-0.964,0.652-1.466,0.955
						c-0.635,0.389-1.291,0.747-1.96,1.077c-0.736,0.363-1.489,0.689-2.258,0.987c-0.801,0.312-1.617,0.595-2.44,0.845
						c-0.842,0.257-1.7,0.482-2.57,0.633c-0.865,0.15-1.75,0.223-2.627,0.154c-0.887-0.071-1.759-0.29-2.582-0.629
						c-0.653-0.27-1.291-0.584-1.899-0.944c-0.524-0.311-1.155-0.655-1.5-1.178c-0.259-0.399-0.376-0.973-0.309-1.44
						C103.626,364.283,103.812,363.893,104.036,363.616z" />
                                        <path style="fill:#C6C6C6;" d="M114.827,363.193c0,0.375-0.303,0.677-0.678,0.677c-0.371,0-0.675-0.302-0.675-0.677
						c0-0.374,0.304-0.675,0.675-0.675C114.524,362.518,114.827,362.82,114.827,363.193z" />
                                        <path style="fill:#C6C6C6;" d="M116.657,362.219c0,0.375-0.304,0.677-0.676,0.677c-0.374,0-0.677-0.302-0.677-0.677
						c0-0.372,0.303-0.675,0.677-0.675C116.354,361.544,116.657,361.847,116.657,362.219z" />
                                        <path style="fill:#C6C6C6;" d="M118.486,361.246c0,0.374-0.302,0.677-0.674,0.677c-0.375,0-0.679-0.303-0.679-0.677
						c0-0.373,0.304-0.675,0.679-0.675C118.185,360.57,118.486,360.873,118.486,361.246z" />
                                        <path style="fill:#C6C6C6;" d="M120.321,360.272c0,0.375-0.305,0.677-0.681,0.677c-0.372,0-0.675-0.302-0.675-0.677
						c0-0.374,0.303-0.676,0.675-0.676C120.017,359.596,120.321,359.898,120.321,360.272z" />
                                        <path style="fill:#C6C6C6;" d="M122.147,359.299c0,0.374-0.303,0.676-0.675,0.676c-0.374,0-0.677-0.302-0.677-0.676
						c0-0.374,0.303-0.676,0.677-0.676C121.845,358.623,122.147,358.925,122.147,359.299z" />
                                        <path style="fill:#C6C6C6;" d="M123.979,358.324c0,0.375-0.305,0.677-0.677,0.677c-0.373,0-0.676-0.303-0.676-0.677
						c0-0.372,0.303-0.675,0.676-0.675C123.674,357.649,123.979,357.951,123.979,358.324z" />
                                    </g>
                                </g>
                                <g>
                                    <polygon style="fill:#AC764A;"
                                        points="163.16,226.917 162.387,355.848 155.159,355.848 142.333,226.917 				" />
                                    <g>
                                        <path style="fill:#AC764A;" d="M161.714,350.303l-0.098,5.886l16.787,6.265c0,0,2.78,1.021,1.607,2.49
						c0,0-4.225,3.325-10.928,0.75l-10.398-5.397l-3.544-1.811l-0.441-8.183H161.714z" />
                                    </g>
                                    <g>
                                        <g>
                                            <path style="fill:#174365;" d="M158.982,357.625c0.313-0.037,0.587-0.237,0.583-0.581c-0.014-1.426,2.185-3.051,3.853-2.056
							l0,0l15.099,7.161c0,0,3.727,1.326,1.495,2.794c0,0-4.315,3.928-11.021,1.351l-10.603-4.815l-3.247-2.993l-0.23-2.648
							C155.973,356.897,157.756,357.765,158.982,357.625z" />
                                        </g>
                                        <path style="fill:#00B1C3;" d="M166.645,360.742c-3.316-1.984-4.932-2.723-7-4.192c0.407-1.27,2.297-2.442,3.772-1.56
						l12.519,5.937C173.281,363.301,171.207,363.471,166.645,360.742z" />
                                        <path style="fill:#E9CFCC;" d="M180.628,363.616c0.07,0.082-0.276,0.588-0.318,0.645c-0.247,0.322-0.62,0.483-0.964,0.205
						c-0.191-0.154-0.36-0.395-0.604-0.462c-0.406-0.112-0.876,0.237-1.243,0.381c-0.549,0.212-1.631,0.568-1.305,1.413
						c0,0,0.103,0.677-2.211,0.79c0,0-7.772-0.105-12.997-5.137c0,0-6.196-2.163-5.927-3.515c0,0-1.516,3.083,5.139,5.357
						c0.142,0.049,0.295,0.192,0.416,0.277c0.285,0.2,0.571,0.405,0.858,0.604c0.477,0.331,0.964,0.652,1.465,0.955
						c0.637,0.389,1.294,0.747,1.961,1.077c0.735,0.363,1.489,0.689,2.256,0.987c0.806,0.312,1.619,0.595,2.444,0.845
						c0.839,0.257,1.699,0.482,2.57,0.633c0.863,0.15,1.748,0.223,2.625,0.154c0.887-0.071,1.758-0.29,2.582-0.629
						c0.653-0.27,1.291-0.584,1.897-0.944c0.526-0.311,1.159-0.655,1.502-1.178c0.259-0.399,0.376-0.973,0.31-1.44
						C181.038,364.283,180.854,363.893,180.628,363.616z" />
                                        <path style="fill:#C6C6C6;" d="M169.838,363.193c0,0.375,0.303,0.677,0.677,0.677c0.373,0,0.675-0.302,0.675-0.677
						c0-0.374-0.302-0.675-0.675-0.675C170.141,362.518,169.838,362.82,169.838,363.193z" />
                                        <path style="fill:#C6C6C6;" d="M168.007,362.219c0,0.375,0.303,0.677,0.674,0.677c0.376,0,0.68-0.302,0.68-0.677
						c0-0.372-0.304-0.675-0.68-0.675C168.31,361.544,168.007,361.847,168.007,362.219z" />
                                        <path style="fill:#C6C6C6;" d="M166.177,361.246c0,0.374,0.303,0.677,0.674,0.677c0.377,0,0.678-0.303,0.678-0.677
						c0-0.373-0.301-0.675-0.678-0.675C166.48,360.57,166.177,360.873,166.177,361.246z" />
                                        <path style="fill:#C6C6C6;" d="M164.343,360.272c0,0.375,0.305,0.677,0.679,0.677c0.375,0,0.678-0.302,0.678-0.677
						c0-0.374-0.303-0.676-0.678-0.676C164.648,359.596,164.343,359.898,164.343,360.272z" />
                                        <path style="fill:#C6C6C6;" d="M162.519,359.299c0,0.374,0.301,0.676,0.675,0.676c0.372,0,0.675-0.302,0.675-0.676
						c0-0.374-0.303-0.676-0.675-0.676C162.819,358.623,162.519,358.925,162.519,359.299z" />
                                        <path style="fill:#C6C6C6;" d="M160.685,358.324c0,0.375,0.302,0.677,0.679,0.677c0.372,0,0.675-0.303,0.675-0.677
						c0-0.372-0.303-0.675-0.675-0.675C160.986,357.649,160.685,357.951,160.685,358.324z" />
                                        <g>
                                            <g>
                                                <g>
                                                    <path style="fill:#E9CFCC;" d="M174.612,360.234c0-0.001-0.346-0.01-0.826,0.127c-0.121,0.02-0.243,0.09-0.374,0.137
									c-0.128,0.058-0.272,0.087-0.397,0.177c-0.129,0.076-0.262,0.155-0.396,0.235c-0.137,0.072-0.238,0.207-0.359,0.305
									c-0.11,0.113-0.234,0.205-0.328,0.328c-0.082,0.137-0.175,0.256-0.26,0.372c-0.097,0.109-0.195,0.209-0.304,0.295
									c-0.089,0.103-0.167,0.208-0.253,0.296c-0.331,0.362-0.678,0.58-0.678,0.58l-0.083-0.036c0,0-0.014-0.379,0.157-0.915
									c0.042-0.133,0.088-0.279,0.16-0.421c0.084-0.136,0.189-0.27,0.305-0.403c0.123-0.125,0.249-0.256,0.389-0.374
									c0.15-0.108,0.32-0.197,0.479-0.295c0.164-0.089,0.307-0.21,0.481-0.267c0.173-0.061,0.341-0.121,0.504-0.179
									c0.157-0.067,0.326-0.081,0.48-0.104c0.156-0.014,0.297-0.051,0.435-0.039c0.54-0.011,0.879,0.091,0.879,0.091
									L174.612,360.234z" />
                                                </g>
                                                <g>
                                                    <path style="fill:#E9CFCC;" d="M168.528,362.03c0,0,0.12-0.31,0.299-0.775c0.045-0.116,0.093-0.242,0.145-0.375
									c0.07-0.128,0.167-0.255,0.258-0.394c0.093-0.138,0.192-0.281,0.292-0.426c0.093-0.156,0.243-0.253,0.366-0.385l0.392-0.377
									c0.146-0.105,0.304-0.193,0.455-0.28c0.153-0.085,0.316-0.131,0.479-0.146c0.159-0.023,0.307-0.049,0.447-0.039
									c0.568,0.023,0.887,0.276,0.887,0.276l-0.016,0.087c0,0-0.34,0.15-0.751,0.333c-0.103,0.046-0.208,0.114-0.322,0.162
									c-0.113,0.051-0.232,0.097-0.349,0.168c-0.125,0.05-0.253,0.105-0.395,0.144c-0.132,0.061-0.253,0.148-0.384,0.224
									c-0.121,0.087-0.276,0.145-0.372,0.256c-0.108,0.104-0.214,0.206-0.315,0.305c-0.107,0.102-0.21,0.201-0.307,0.294
									c-0.085,0.115-0.165,0.223-0.238,0.323c-0.296,0.4-0.493,0.667-0.493,0.667L168.528,362.03z" />
                                                </g>
                                                <g>
                                                    <path style="fill:#E9CFCC;" d="M170.509,358.182c0,0-0.085-0.006-0.217,0.016c-0.133,0.006-0.322,0.066-0.539,0.125
									c-0.207,0.108-0.459,0.179-0.681,0.356c-0.113,0.081-0.235,0.152-0.347,0.243l-0.306,0.318
									c-0.096,0.109-0.206,0.2-0.269,0.34c-0.07,0.131-0.152,0.246-0.229,0.359c-0.083,0.108-0.183,0.196-0.269,0.293
									c-0.075,0.104-0.154,0.198-0.234,0.283c-0.313,0.341-0.644,0.541-0.644,0.541l-0.082-0.036c0,0-0.028-0.36,0.113-0.86
									c0.061-0.253,0.167-0.538,0.387-0.784c0.221-0.241,0.455-0.491,0.765-0.67l0.427-0.288c0.151-0.078,0.313-0.135,0.461-0.198
									c0.285-0.148,0.604-0.153,0.846-0.199c0.257,0.002,0.461-0.004,0.609,0.03c0.145,0.018,0.219,0.046,0.219,0.046
									L170.509,358.182z" />
                                                </g>
                                                <g>
                                                    <path style="fill:#E9CFCC;" d="M168.56,357.23c0,0-0.082-0.009-0.211,0.01c-0.129,0.002-0.314,0.061-0.526,0.114
									c-0.2,0.104-0.44,0.177-0.655,0.35c-0.108,0.082-0.232,0.141-0.332,0.243l-0.293,0.312
									c-0.098,0.102-0.193,0.202-0.255,0.338c-0.066,0.128-0.146,0.241-0.22,0.351c-0.181,0.192-0.334,0.397-0.488,0.565
									c-0.307,0.333-0.633,0.526-0.633,0.526l-0.082-0.036c0,0-0.033-0.354,0.102-0.841c0.031-0.122,0.074-0.253,0.125-0.387
									c0.044-0.139,0.149-0.255,0.242-0.383c0.22-0.233,0.436-0.486,0.739-0.662l0.417-0.284c0.139-0.089,0.305-0.136,0.447-0.2
									c0.147-0.058,0.281-0.126,0.432-0.136c0.141-0.022,0.275-0.041,0.398-0.06c0.252,0.007,0.451,0.004,0.596,0.042
									c0.142,0.022,0.212,0.052,0.212,0.052L168.56,357.23z" />
                                                </g>
                                                <g>
                                                    <path style="fill:#E9CFCC;" d="M166.528,356.226c0,0-0.079-0.01-0.204,0.008c-0.12,0.002-0.301,0.058-0.497,0.121
									c-0.096,0.046-0.197,0.097-0.307,0.15c-0.108,0.043-0.203,0.14-0.308,0.209c-0.102,0.083-0.22,0.136-0.306,0.252
									l-0.272,0.307c-0.196,0.187-0.277,0.49-0.435,0.686c-0.173,0.189-0.311,0.396-0.466,0.556
									c-0.298,0.322-0.617,0.507-0.617,0.507l-0.082-0.036c0,0-0.039-0.345,0.082-0.816c0.029-0.119,0.066-0.244,0.115-0.374
									c0.033-0.137,0.133-0.251,0.221-0.375c0.209-0.226,0.408-0.475,0.691-0.657l0.398-0.283c0.12-0.103,0.285-0.148,0.421-0.214
									c0.145-0.052,0.266-0.139,0.413-0.151c0.137-0.022,0.266-0.044,0.387-0.064c0.242-0.004,0.438-0.004,0.578,0.033
									c0.14,0.023,0.206,0.053,0.206,0.053L166.528,356.226z" />
                                                </g>
                                                <g>
                                                    <path style="fill:#E9CFCC;" d="M164.724,355.304c0,0-0.079-0.013-0.203,0c-0.121-0.003-0.303,0.046-0.503,0.098
									c-0.096,0.043-0.199,0.09-0.31,0.139c-0.109,0.036-0.206,0.13-0.314,0.196c-0.101,0.081-0.223,0.127-0.308,0.241l-0.276,0.3
									c-0.097,0.092-0.174,0.208-0.235,0.336c-0.061,0.125-0.137,0.233-0.205,0.34c-0.173,0.185-0.313,0.392-0.466,0.55
									c-0.299,0.32-0.619,0.503-0.619,0.503l-0.08-0.036c0,0-0.04-0.344,0.083-0.814c0.028-0.119,0.067-0.244,0.116-0.373
									c0.033-0.137,0.135-0.25,0.223-0.374c0.214-0.224,0.413-0.473,0.701-0.65l0.404-0.276c0.121-0.101,0.29-0.138,0.428-0.203
									c0.146-0.048,0.27-0.131,0.418-0.136c0.138-0.018,0.268-0.034,0.389-0.049c0.244,0.008,0.438,0.016,0.576,0.06
									c0.137,0.029,0.201,0.062,0.201,0.062L164.724,355.304z" />
                                                </g>
                                                <g>
                                                    <path style="fill:#E9CFCC;"
                                                        d="M172.345,359.136c0,0-0.148,0.222-0.372,0.556c-0.122,0.154-0.228,0.361-0.368,0.557
									c-0.143,0.195-0.254,0.428-0.387,0.645l-0.174,0.335c-0.052,0.112-0.127,0.217-0.156,0.331
									c-0.063,0.225-0.178,0.426-0.224,0.612c-0.066,0.371-0.149,0.645-0.149,0.645s-0.061-0.256-0.097-0.68
									c-0.009-0.106,0.025-0.213,0.038-0.332c0.018-0.118,0.034-0.245,0.07-0.372c0.025-0.13,0.094-0.246,0.142-0.373l0.163-0.38
									c0.159-0.225,0.3-0.463,0.467-0.658c0.162-0.198,0.337-0.362,0.49-0.495C172.096,359.256,172.345,359.136,172.345,359.136z" />
                                                </g>
                                                <g>
                                                    <path style="fill:#E9CFCC;" d="M174.534,360.166c0,0-0.391,0.044-0.977,0.109c-0.579,0.078-1.35,0.17-2.093,0.359
									c-0.374,0.079-0.743,0.182-1.076,0.307c-0.333,0.128-0.645,0.249-0.898,0.385c-0.246,0.147-0.469,0.253-0.599,0.364
									c-0.146,0.096-0.228,0.151-0.228,0.151s0.061-0.078,0.17-0.215c0.108-0.139,0.282-0.32,0.521-0.51
									c0.246-0.174,0.54-0.381,0.89-0.531c0.348-0.15,0.73-0.281,1.121-0.382c0.395-0.078,0.79-0.14,1.164-0.169
									c0.373-0.038,0.725-0.013,1.021-0.007C174.146,360.065,174.534,360.166,174.534,360.166z" />
                                                </g>
                                                <g>
                                                    <path style="fill:#E9CFCC;" d="M172.297,359.32c0,0-0.348,0.104-0.862,0.243c-0.515,0.131-1.197,0.306-1.883,0.481
									c-0.686,0.16-1.349,0.375-1.859,0.52c-0.486,0.191-0.842,0.293-0.842,0.293s0.277-0.224,0.741-0.521
									c0.245-0.113,0.525-0.265,0.841-0.393c0.32-0.108,0.664-0.222,1.01-0.327c0.703-0.157,1.411-0.28,1.953-0.299
									C171.935,359.284,172.297,359.32,172.297,359.32z" />
                                                </g>
                                                <g>
                                                    <path style="fill:#E9CFCC;" d="M170.25,358.235c0,0-0.308,0.167-0.785,0.369c-0.241,0.093-0.517,0.219-0.824,0.321
									c-0.304,0.103-0.63,0.213-0.956,0.323c-0.332,0.091-0.664,0.182-0.975,0.267c-0.311,0.087-0.611,0.135-0.863,0.193
									c-0.51,0.1-0.86,0.132-0.86,0.132s0.309-0.168,0.786-0.37c0.241-0.092,0.517-0.22,0.822-0.321
									c0.307-0.103,0.632-0.213,0.958-0.322c0.331-0.091,0.663-0.182,0.975-0.267c0.311-0.086,0.611-0.135,0.863-0.192
									C169.9,358.269,170.25,358.235,170.25,358.235z" />
                                                </g>
                                                <g>
                                                    <path style="fill:#E9CFCC;" d="M168.388,357.314c0,0-0.27,0.231-0.725,0.497c-0.447,0.282-1.093,0.56-1.752,0.806
									c-0.344,0.088-0.682,0.186-1.006,0.254c-0.328,0.056-0.637,0.082-0.901,0.105c-0.535-0.012-0.879-0.058-0.879-0.058
									s0.347-0.098,0.847-0.189c0.249-0.058,0.535-0.165,0.845-0.232c0.309-0.083,0.631-0.199,0.956-0.3
									c0.322-0.111,0.651-0.207,0.951-0.323c0.3-0.117,0.596-0.192,0.835-0.289C168.051,357.421,168.388,357.314,168.388,357.314z
									" />
                                                </g>
                                                <g>
                                                    <path style="fill:#E9CFCC;" d="M166.486,356.174c0,0-0.269,0.232-0.724,0.498c-0.447,0.281-1.092,0.56-1.752,0.806
									c-0.342,0.088-0.681,0.186-1.004,0.254c-0.328,0.056-0.638,0.082-0.901,0.104c-0.536-0.012-0.88-0.058-0.88-0.058
									s0.348-0.098,0.848-0.189c0.249-0.058,0.534-0.165,0.844-0.231c0.309-0.083,0.631-0.199,0.955-0.3
									c0.324-0.11,0.652-0.207,0.952-0.322c0.301-0.117,0.595-0.192,0.835-0.289C166.15,356.281,166.486,356.174,166.486,356.174z
									" />
                                                </g>
                                                <g>
                                                    <path style="fill:#E9CFCC;" d="M170.395,358.12c0,0-0.137,0.239-0.34,0.598c-0.115,0.167-0.209,0.386-0.342,0.598
									c-0.135,0.21-0.238,0.455-0.362,0.687c-0.108,0.237-0.229,0.473-0.315,0.702c-0.06,0.234-0.168,0.446-0.217,0.638
									c-0.064,0.384-0.147,0.664-0.147,0.664s-0.062-0.264-0.099-0.698c0.014-0.21,0.045-0.458,0.098-0.721
									c0.074-0.255,0.183-0.517,0.285-0.782c0.149-0.238,0.279-0.489,0.438-0.699c0.152-0.213,0.32-0.393,0.466-0.542
									C170.153,358.266,170.395,358.12,170.395,358.12z" />
                                                </g>
                                                <g>
                                                    <path style="fill:#E9CFCC;" d="M168.567,357.192c0,0-0.137,0.239-0.341,0.597c-0.114,0.167-0.21,0.386-0.341,0.598
									c-0.136,0.21-0.239,0.455-0.364,0.688c-0.108,0.237-0.229,0.473-0.315,0.702c-0.059,0.234-0.168,0.446-0.216,0.638
									c-0.066,0.384-0.146,0.665-0.146,0.665s-0.063-0.264-0.101-0.698c0.013-0.21,0.045-0.458,0.097-0.722
									c0.075-0.255,0.185-0.517,0.286-0.782c0.15-0.238,0.28-0.489,0.438-0.699c0.153-0.213,0.32-0.393,0.467-0.542
									C168.324,357.338,168.567,357.192,168.567,357.192z" />
                                                </g>
                                                <g>
                                                    <path style="fill:#E9CFCC;" d="M166.537,356.174c0,0-0.132,0.23-0.313,0.564c-0.107,0.157-0.188,0.366-0.311,0.564
									c-0.115,0.202-0.219,0.428-0.322,0.649c-0.09,0.225-0.215,0.443-0.275,0.663c-0.049,0.221-0.161,0.419-0.189,0.602
									c-0.061,0.362-0.14,0.625-0.14,0.625s-0.066-0.247-0.107-0.652c-0.019-0.102,0.012-0.206,0.019-0.321
									c0.012-0.114,0.022-0.236,0.05-0.359c0.048-0.247,0.158-0.49,0.242-0.745c0.248-0.471,0.546-0.909,0.837-1.178
									C166.304,356.305,166.537,356.174,166.537,356.174z" />
                                                </g>
                                                <g>
                                                    <path style="fill:#E9CFCC;" d="M164.648,355.216c0,0-0.131,0.239-0.313,0.585c-0.107,0.164-0.19,0.379-0.314,0.585
									c-0.119,0.207-0.218,0.444-0.329,0.671l-0.148,0.346c-0.045,0.115-0.111,0.224-0.133,0.339
									c-0.054,0.227-0.16,0.433-0.195,0.62c-0.063,0.372-0.142,0.643-0.142,0.643s-0.064-0.254-0.106-0.671
									c-0.014-0.105,0.016-0.211,0.022-0.329c0.013-0.117,0.024-0.242,0.052-0.369c0.015-0.13,0.076-0.249,0.115-0.378
									l0.135-0.386c0.136-0.236,0.261-0.478,0.403-0.687c0.145-0.208,0.301-0.387,0.44-0.533
									C164.413,355.358,164.648,355.216,164.648,355.216z" />
                                                </g>
                                            </g>
                                            <g>
                                                <g>
                                                    <path style="fill:#E9CFCC;" d="M163.42,355.741c0.904-0.674,3.782-2.474,2.648-3.861c-0.67-0.819-1.693,0.033-2.136,0.604
									c-0.594,0.768-1.045,1.691-1.365,2.606c0.283,0.039,0.566,0.077,0.85,0.115c0.08-1.408-0.392-2.623-1.263-3.714
									c-0.218-0.274-0.628-0.084-0.724,0.191c-0.464,1.356,0.161,3.254,1.444,3.952c0.489,0.267,0.927-0.48,0.437-0.747
									c-0.959-0.522-1.389-1.974-1.045-2.974c-0.242,0.063-0.482,0.127-0.725,0.191c0.728,0.913,1.076,1.934,1.01,3.102
									c-0.03,0.513,0.696,0.554,0.85,0.115c0.155-0.446,1.436-3.363,2.055-2.828c0.384,0.332-2.179,2.283-2.471,2.502
									C162.543,355.323,162.973,356.075,163.42,355.741L163.42,355.741z" />
                                                </g>
                                            </g>
                                        </g>
                                    </g>
                                </g>
                                <g>
                                    <rect x="135.756" y="104.032" style="fill:#AC764A;" width="12.538"
                                        height="12.281" />
                                    <path style="fill:#C6C6C6;" d="M136.864,112.906c3.434-2.998,8.558-2.199,11.43-6.059v-2.815h-12.538v10.231
					C136.06,113.753,136.423,113.294,136.864,112.906z" />
                                </g>
                                <path style="fill:#AC764A;" d="M169.762,130.919c1.642-6.857-3.692-10.183-3.692-10.183l-18.309-7.275h-5.578h-0.314h-5.579
				l-18.31,7.275c0,0-5.332,3.326-3.691,10.183l7.314,51.544c0,0,0.343,2.577,0.069,8.73h20.196h0.314h20.236
				c-0.547-4.239,0.027-8.73,0.027-8.73L169.762,130.919z" />
                                <polygon style="fill:#002C32;" points="164.769,191.194 142.237,191.194 119.702,191.194 119.679,268.048 140.553,268.048 
				142.237,252.374 143.919,268.048 164.794,268.048 			" />
                                <path style="fill:#00B1C3;" d="M169.762,130.919c1.642-6.857-3.692-10.183-3.692-10.183l-14.025-5.574
				c-2.583,2.759-6.23,4.514-10.234,4.514c-3.943,0-7.542-1.701-10.117-4.388l-13.713,5.449c0,0-5.332,3.326-3.691,10.183
				l3.691,88.999h48.639L169.762,130.919z" />
                                <g>
                                    <path style="fill:#432918;" d="M169.083,63.635c0-1.293-0.869-2.373-2.03-2.642c1.161-0.267,2.03-1.349,2.03-2.642
					c0-1.473-1.126-2.668-2.527-2.705c0.629-0.493,1.035-1.276,1.035-2.161c0-1.316-0.898-2.412-2.088-2.657
					c0.041-0.194,0.066-0.394,0.066-0.601c0-1.496-1.161-2.707-2.593-2.707c-0.128,0-0.251,0.012-0.374,0.029
					c0.33-0.454,0.523-1.017,0.523-1.628c0-1.495-1.159-2.71-2.592-2.71c-0.035,0-0.072,0.005-0.107,0.007
					c0.02-0.131,0.03-0.268,0.03-0.404c0-1.497-1.159-2.708-2.589-2.708c-0.537,0-1.033,0.168-1.449,0.459
					c0.027-0.15,0.041-0.305,0.041-0.459c0-1.498-1.158-2.708-2.594-2.708c-1.229,0-2.254,0.893-2.521,2.093
					c0.012-0.108,0.018-0.221,0.018-0.333c0-1.496-1.157-2.71-2.59-2.71c-0.825,0-1.559,0.404-2.035,1.031
					c-0.374-1.01-1.313-1.728-2.413-1.728c-1.146,0-2.115,0.777-2.459,1.854c-0.342-1.077-1.313-1.854-2.46-1.854
					c-1.102,0-2.038,0.718-2.416,1.729c-0.473-0.626-1.208-1.032-2.03-1.032c-1.148,0-2.115,0.777-2.459,1.853
					c-0.475-0.554-1.164-0.903-1.928-0.903c-1.435,0-2.594,1.211-2.594,2.708c0,0.139,0.011,0.278,0.032,0.413
					c-0.476-0.543-1.154-0.884-1.911-0.884c-1.434,0-2.594,1.213-2.594,2.708c0,0.178,0.018,0.349,0.046,0.517
					c-0.149-0.03-0.302-0.046-0.463-0.046c-1.432,0-2.593,1.213-2.593,2.708c0,0.171,0.02,0.341,0.047,0.503
					c-0.225-0.066-0.463-0.104-0.711-0.104c-1.432,0-2.593,1.211-2.593,2.706c0,0.604,0.191,1.159,0.509,1.609
					c-1.369,0.086-2.45,1.274-2.437,2.723c0.006,0.588,0.189,1.13,0.499,1.57c-0.965,0.396-1.648,1.373-1.648,2.521
					c0,0.839,0.367,1.589,0.939,2.083c-0.887,0.43-1.506,1.367-1.506,2.456c0,1.025,0.547,1.919,1.352,2.378
					c-0.805,0.458-1.352,1.353-1.352,2.378c0,0.975,0.494,1.825,1.232,2.303c-0.738,0.477-1.232,1.328-1.232,2.301
					c0,1.06,0.587,1.977,1.436,2.421c-0.53,0.497-0.869,1.214-0.869,2.017c0,1.495,1.162,2.708,2.596,2.708
					c0.357,0,0.695-0.076,1.006-0.212c-0.328,0.454-0.524,1.016-0.524,1.629c0,1.495,1.161,2.709,2.593,2.709
					c1.423,0,2.578-1.2,2.591-2.682c1.255-0.189,2.222-1.314,2.222-2.678c0-0.172-0.016-0.344-0.048-0.508
					c0.655-0.492,1.086-1.293,1.086-2.2c0-1.178-0.724-2.179-1.728-2.55c0.642-0.492,1.063-1.285,1.063-2.183
					c0-1.088-0.616-2.023-1.502-2.454c1.229-0.214,2.167-1.325,2.167-2.669c0-0.865-0.392-1.635-0.998-2.132
					c0.84-0.448,1.415-1.357,1.415-2.408c0-0.597-0.189-1.149-0.501-1.596c0.957-0.397,1.639-1.373,1.639-2.518
					c0-0.369-0.071-0.718-0.196-1.038c1.092-0.319,1.896-1.363,1.896-2.606c0-0.521-0.143-1.004-0.386-1.417
					c0.379,0.225,0.814,0.354,1.279,0.354c1.271,0,2.323-0.954,2.548-2.212c0.438,0.353,0.986,0.565,1.583,0.565
					c1.192,0,2.192-0.843,2.495-1.989c0.476,0.568,1.175,0.928,1.952,0.928c1.195,0,2.201-0.848,2.5-1.998
					c0.474,0.638,1.211,1.049,2.048,1.049c0.613,0,1.177-0.225,1.622-0.598c0.417,0.914,1.307,1.546,2.338,1.546
					c0.742,0,1.408-0.328,1.881-0.846c0.325,1.104,1.31,1.907,2.478,1.907c0.202,0,0.398-0.026,0.588-0.072
					c0,0.024-0.006,0.048-0.006,0.072c0,1.496,1.163,2.709,2.597,2.709c0.291,0,0.572-0.055,0.834-0.147
					c-0.059,0.225-0.091,0.46-0.091,0.704c0,1.497,1.159,2.71,2.595,2.71c0.055,0,0.107-0.005,0.162-0.009
					c-0.105,0.292-0.162,0.606-0.162,0.935c0,1.123,0.653,2.086,1.584,2.497c-0.411,0.479-0.664,1.11-0.664,1.804
					c0,0.898,0.422,1.694,1.066,2.186c-0.645,0.493-1.066,1.288-1.066,2.187c0,1.034,0.557,1.932,1.373,2.389
					c-0.816,0.455-1.373,1.354-1.373,2.389c0,0.799,0.334,1.514,0.861,2.012c-0.954,0.397-1.631,1.371-1.631,2.513
					c0,1.235,0.792,2.275,1.875,2.6c0.055,1.446,1.191,2.599,2.589,2.599c0.101,0,0.198-0.007,0.297-0.019
					c0.434,0.862,1.3,1.452,2.296,1.452c1.433,0,2.592-1.213,2.592-2.707c0-0.818-0.347-1.548-0.896-2.045
					c1.338-0.11,2.389-1.274,2.389-2.696c0-0.987-0.504-1.846-1.259-2.32c0.755-0.474,1.259-1.335,1.259-2.319
					c0-1.166-0.707-2.156-1.697-2.539C168.376,65.794,169.083,64.802,169.083,63.635z" />
                                    <g>
                                        <path style="fill:#AC764A;" d="M122.992,83.706c0.474,2.501-0.42,4.77-1.993,5.063c-1.576,0.298-3.232-1.488-3.703-3.991
						c-0.47-2.501,0.425-4.768,1.998-5.064C120.868,79.416,122.524,81.203,122.992,83.706z" />
                                        <path style="fill:#DADADA;" d="M120.16,82.148c0,0-0.107,0.051-0.292,0.119c-0.088,0.034-0.22,0.056-0.299,0.147
						c-0.084,0.088-0.188,0.124-0.256,0.25c-0.084,0.098-0.145,0.217-0.185,0.361c-0.069,0.115-0.046,0.306-0.09,0.452
						c0.003,0.344,0,0.721,0.104,1.099c0.063,0.382,0.198,0.751,0.34,1.083c0.14,0.338,0.316,0.604,0.498,0.81
						c0.096,0.072,0.188,0.167,0.288,0.209c0.094,0.016,0.203,0.089,0.283,0.058c0.173-0.023,0.301-0.031,0.301-0.031
						s-0.067,0.077-0.246,0.209c-0.083,0.082-0.224,0.077-0.384,0.119c-0.161,0.022-0.352-0.027-0.537-0.098
						c-0.358-0.166-0.703-0.477-0.946-0.861c-0.257-0.378-0.437-0.83-0.538-1.301c-0.05-0.237-0.077-0.479-0.077-0.722
						c-0.028-0.239,0.049-0.491,0.077-0.72c0.088-0.232,0.135-0.46,0.295-0.647c0.07-0.094,0.135-0.188,0.207-0.267
						c0.092-0.063,0.18-0.123,0.266-0.181c0.15-0.132,0.37-0.138,0.517-0.17c0.16-0.039,0.267,0.003,0.366,0.015
						C120.044,82.116,120.16,82.148,120.16,82.148z" />
                                    </g>
                                    <g>
                                        <path style="fill:#AC764A;" d="M161.601,83.706c-0.473,2.501,0.42,4.77,1.995,5.063c1.573,0.298,3.231-1.488,3.7-3.991
						c0.471-2.501-0.424-4.768-1.997-5.064C163.726,79.416,162.069,81.203,161.601,83.706z" />
                                        <path style="fill:#DADADA;" d="M164.435,82.148c0,0,0.104,0.051,0.29,0.119c0.086,0.034,0.22,0.056,0.3,0.147
						c0.083,0.088,0.188,0.124,0.254,0.25c0.086,0.098,0.146,0.217,0.186,0.361c0.07,0.115,0.047,0.306,0.092,0.452
						c-0.006,0.344,0,0.721-0.105,1.099c-0.065,0.382-0.199,0.751-0.338,1.083c-0.145,0.338-0.32,0.604-0.5,0.81
						c-0.095,0.072-0.189,0.167-0.288,0.209c-0.093,0.016-0.206,0.089-0.286,0.058c-0.172-0.023-0.3-0.031-0.3-0.031
						s0.066,0.077,0.244,0.209c0.085,0.082,0.225,0.077,0.388,0.119c0.16,0.022,0.351-0.027,0.538-0.098
						c0.356-0.166,0.697-0.477,0.942-0.861c0.261-0.378,0.439-0.83,0.54-1.301c0.051-0.237,0.077-0.479,0.077-0.722
						c0.026-0.239-0.052-0.491-0.079-0.72c-0.085-0.232-0.134-0.46-0.294-0.647c-0.069-0.094-0.133-0.188-0.206-0.267
						c-0.092-0.063-0.179-0.123-0.266-0.181c-0.15-0.132-0.37-0.138-0.519-0.17c-0.157-0.039-0.265,0.003-0.36,0.015
						C164.548,82.116,164.435,82.148,164.435,82.148z" />
                                    </g>
                                    <path style="fill:#AC764A;" d="M142.424,47.665V47.66c-0.085,0-0.174,0.001-0.258,0.003c-0.091-0.002-0.178-0.003-0.265-0.003
					v0.005c-13.274,0.117-23.572,4.764-21.536,28.959l3.753,18.404c0,0,0.406,3.518,4.264,5.62l8.58,5.345
					c0,0,3.426,1.522,5.204,1.372c1.771,0.151,5.2-1.372,5.2-1.372l8.58-5.345c3.854-2.102,4.261-5.62,4.261-5.62l3.757-18.404
					C165.999,52.428,155.7,47.781,142.424,47.665z" />
                                    <path style="fill:#3A2313;" d="M161.429,82.124h1.406l-2.607,12.761c0,0-0.41,6.71-4.271,8.814l-8.602,5.346
					c0,0-3.431,1.521-5.208,1.37c-1.78,0.151-5.216-1.37-5.216-1.37l-8.599-5.346c-3.864-2.104-4.271-8.814-4.271-8.814
					l-2.608-12.761h1.147c0.789,3.768,2.281,8.124,5.258,10.725c0.836,0.73,1.945,1.205,3.055,1.285
					c1.029,0.072,1.81-0.045,2.408-0.908c1.949-2.833,4.959-3.146,8.161-3.107c3.377,0.043,7.933-0.177,9.387,3.7
					c0,0,0.46,1.228,2.085,0.86C152.952,94.678,158.654,95.784,161.429,82.124z" />
                                    <path style="fill:#432918;" d="M158.657,60.186c0,0,4.459,9.191,2.69,22.553h1.332c0.253-0.628,0.697-1.957,0.873-2.609
					c2.392-8.754,2.8-18.072,1.544-27.19c-1.078-7.833-7.522-9.2-7.522-9.2c-3.618-1.089-25.851-0.382-25.851-0.382
					c-13.41,1.345-13.3,11.955-13.3,11.955c-0.411,4.782-0.619,9.688-0.028,14.377c0.56,4.451,1.389,7.827,3.316,13.373l1.028-0.324
					c0,0-3.058-16.567,3.081-24.065c0,0,6.731-6.448,15.519-2.441C141.34,56.232,155.909,52.649,158.657,60.186z" />
                                    <g>
                                        <g>
                                            <path style="fill:#8F623E;" d="M138.433,84.842c0,0,0.51,0.121,1.274,0.302c0.362,0.078,0.761,0.172,1.177,0.238
							c0.416,0.062,0.839,0.129,1.256,0.13c0.211,0.023,0.416,0.007,0.622,0c0.208,0.009,0.405-0.04,0.609-0.05
							c0.204-0.006,0.395-0.069,0.591-0.09c0.195-0.025,0.373-0.086,0.551-0.125c0.17-0.053,0.354-0.065,0.495-0.121
							c0.143-0.051,0.282-0.084,0.395-0.114c0.23-0.058,0.379-0.084,0.379-0.084s-0.051,0.13-0.168,0.346
							c-0.12,0.212-0.293,0.532-0.61,0.812c-0.153,0.147-0.314,0.326-0.532,0.441c-0.213,0.122-0.427,0.299-0.691,0.378
							c-0.26,0.089-0.529,0.209-0.823,0.236c-0.288,0.056-0.586,0.078-0.883,0.061c-0.597-0.013-1.169-0.181-1.657-0.399
							c-0.484-0.236-0.889-0.52-1.188-0.817C138.62,85.406,138.433,84.842,138.433,84.842z" />
                                        </g>
                                        <g>
                                            <g>
                                                <g>
                                                    <g>
                                                        <g>
                                                            <path style="fill:#301800;" d="M135.893,74.878c0,1.28-1.039,2.318-2.319,2.318s-2.318-1.038-2.318-2.318
											c0-1.279,1.038-2.32,2.318-2.32S135.893,73.599,135.893,74.878z" />
                                                            <path style="fill:#FFFFFF;" d="M132.963,73.706c0,0.486-0.394,0.881-0.881,0.881c-0.485,0-0.878-0.396-0.878-0.881
											c0-0.487,0.393-0.88,0.878-0.88C132.569,72.826,132.963,73.219,132.963,73.706z" />
                                                            <path style="fill:#FFFFFF;" d="M133.478,74.878c0,0.286-0.229,0.518-0.515,0.518c-0.286,0-0.517-0.232-0.517-0.518
											c0-0.283,0.23-0.516,0.517-0.516C133.249,74.363,133.478,74.595,133.478,74.878z" />
                                                        </g>
                                                        <path style="fill:#432918;" d="M137.115,67.73c0,0,0.73,1.391-0.158,2.588l-7.832-0.079c0,0-1.841,0.081-2.87,1.075
										C126.255,71.315,126.091,66.385,137.115,67.73z" />
                                                    </g>
                                                </g>
                                            </g>
                                            <g>
                                                <g>
                                                    <g>
                                                        <g>
                                                            <path style="fill:#301800;" d="M148.322,74.878c0,1.28,1.04,2.318,2.32,2.318c1.28,0,2.319-1.038,2.319-2.318
											c0-1.279-1.039-2.32-2.319-2.32C149.362,72.558,148.322,73.599,148.322,74.878z" />
                                                            <path style="fill:#FFFFFF;" d="M151.256,73.706c0,0.486,0.391,0.881,0.878,0.881c0.484,0,0.879-0.396,0.879-0.881
											c0-0.487-0.395-0.88-0.879-0.88C151.646,72.826,151.256,73.219,151.256,73.706z" />
                                                            <path style="fill:#FFFFFF;" d="M150.738,74.878c0,0.286,0.23,0.518,0.518,0.518c0.282,0,0.513-0.232,0.513-0.518
											c0-0.283-0.23-0.516-0.513-0.516C150.968,74.363,150.738,74.595,150.738,74.878z" />
                                                        </g>
                                                        <path style="fill:#432918;" d="M147.101,67.73c0,0-0.729,1.391,0.158,2.588l7.834-0.079c0,0,1.84,0.081,2.867,1.075
										C157.96,71.315,158.125,66.385,147.101,67.73z" />
                                                    </g>
                                                </g>
                                            </g>
                                        </g>
                                        <g>
                                            <g>
                                                <path style="fill:#FFFFFF;" d="M135.644,92.331c0.125,2.695,2.992,4.852,6.52,4.852c3.525,0,6.396-2.157,6.523-4.852H135.644
								z" />
                                                <g>
                                                    <path style="fill:#8F623E;"
                                                        d="M148.687,92.331c0,0-0.814,0.154-2.038,0.264c-1.223,0.117-2.853,0.194-4.483,0.197
									c-1.631-0.002-3.261-0.079-4.483-0.196c-1.223-0.11-2.038-0.265-2.038-0.265s0.815-0.155,2.038-0.265
									c1.223-0.117,2.852-0.193,4.483-0.196c1.631,0.003,3.261,0.081,4.483,0.197C147.872,92.177,148.687,92.331,148.687,92.331z" />
                                                </g>
                                                <g>
                                                    <path style="fill:#8F623E;" d="M135.644,92.331c0,0,0.016,0.068,0.046,0.197c0.028,0.128,0.074,0.32,0.159,0.542
									c0.146,0.451,0.483,1.058,1.035,1.63c0.547,0.579,1.33,1.102,2.25,1.465c0.459,0.185,0.953,0.318,1.464,0.413
									c0.501,0.11,1.057,0.133,1.549,0.145c0.581-0.014,1.072-0.035,1.584-0.145c0.51-0.097,1.005-0.229,1.464-0.414
									c0.92-0.364,1.703-0.886,2.25-1.464c0.552-0.574,0.89-1.176,1.037-1.632c0.086-0.226,0.13-0.411,0.158-0.539
									c0.03-0.128,0.047-0.197,0.047-0.197c-0.018-0.003,0.044,0.282-0.032,0.778c-0.026,0.25-0.106,0.548-0.23,0.88
									c-0.126,0.33-0.302,0.701-0.572,1.049c-0.512,0.722-1.331,1.402-2.333,1.87c-0.502,0.23-1.041,0.434-1.612,0.542
									c-0.561,0.133-1.19,0.174-1.724,0.193c-0.623-0.021-1.188-0.061-1.761-0.193c-0.569-0.111-1.109-0.313-1.61-0.543
									c-1.002-0.468-1.823-1.148-2.334-1.87c-0.27-0.348-0.445-0.719-0.572-1.048c-0.123-0.333-0.203-0.629-0.233-0.882
									C135.6,92.61,135.661,92.332,135.644,92.331z" />
                                                </g>
                                            </g>
                                            <path style="fill:#2F1B0B;"
                                                d="M140.654,99.002c0,0,0.189-0.024,0.472-0.041c0.283-0.01,0.661-0.021,1.04-0.036
							c0.376,0.015,0.753,0.026,1.038,0.036c0.284,0.017,0.47,0.041,0.47,0.041v0.151c0,0-0.186,0.431-0.47,0.737
							c-0.143,0.17-0.309,0.296-0.486,0.4c-0.176,0.096-0.364,0.143-0.552,0.146c-0.191-0.005-0.379-0.053-0.556-0.149
							c-0.09-0.041-0.174-0.117-0.257-0.18c-0.082-0.055-0.157-0.141-0.228-0.221c-0.283-0.305-0.472-0.734-0.472-0.734V99.002z" />
                                        </g>
                                    </g>
                                </g>
                            </g>
                            <g>
                                <path style="fill:#AC764A;" d="M178.509,226.502c3.012-0.28,5.717,2.305,6.039,5.774c0.324,3.47-1.855,6.511-4.867,6.792
				c-3.012,0.281-5.715-2.305-6.04-5.775C173.316,229.823,175.498,226.785,178.509,226.502z" />
                                <g>
                                    <g>

                                        <rect x="175.492" y="201.973"
                                            transform="matrix(0.0147 -0.9999 0.9999 0.0147 -61.3166 411.1744)"
                                            style="fill:#93A6B0;" width="4.96" height="69.452" />

                                        <rect x="176.75" y="200.734"
                                            transform="matrix(0.0147 -0.9999 0.9999 0.0147 -60.0593 409.972)"
                                            style="opacity:0.3;fill:#B2B2B2;" width="2.481" height="69.452" />

                                        <rect x="177.345" y="200.148"
                                            transform="matrix(0.0147 -0.9999 0.9999 0.0147 -59.4647 409.4034)"
                                            style="opacity:0.3;fill:#B2B2B2;" width="1.309" height="69.452" />
                                    </g>
                                    <g>
                                        <g>
                                            <g>
                                                <path style="fill:#314B5C;" d="M202.905,229.001c0.012-0.7,0.59-1.261,1.29-1.251l5.97,0.088
								c0.702,0.011,1.262,0.589,1.252,1.288l-0.237,16.127c-0.012,0.702-0.587,1.261-1.289,1.252l-5.971-0.089
								c-0.7-0.01-1.261-0.586-1.249-1.288L202.905,229.001z" />
                                            </g>
                                            <path style="opacity:0.3;fill:#314B5C;" d="M206.069,231.225c0.584,0.007,1.056,0.489,1.044,1.073l-0.196,13.467
							c-0.004,0.267-0.112,0.508-0.278,0.691l3.252,0.049c0.702,0.009,1.277-0.55,1.289-1.252l0.237-16.127
							c0.01-0.699-0.55-1.277-1.252-1.288l-5.97-0.088c-0.7-0.01-1.278,0.551-1.29,1.251l-0.03,2.175L206.069,231.225z" />
                                            <path style="opacity:0.3;fill:#314B5C;" d="M207.895,229.828c0.637,0.009,1.146,0.534,1.135,1.171l-0.215,14.636
							c-0.004,0.342-0.159,0.641-0.4,0.849l1.476,0.023c0.702,0.009,1.277-0.55,1.289-1.252l0.237-16.127
							c0.01-0.699-0.55-1.277-1.252-1.288l-5.97-0.088c-0.7-0.01-1.278,0.551-1.29,1.251l-0.01,0.752L207.895,229.828z" />
                                            <path style="opacity:0.3;fill:#FFFFFF;" d="M202.827,233.49c0.002-0.192,0.163-0.345,0.352-0.342l2.209,0.033
							c0.191,0.002,0.344,0.161,0.341,0.351l-0.126,8.671c-0.004,0.19-0.162,0.342-0.354,0.339l-2.207-0.032
							c-0.191-0.003-0.345-0.16-0.344-0.35L202.827,233.49z" />
                                        </g>
                                        <g>
                                            <g>
                                                <path style="fill:#314B5C;" d="M189.305,225.265c0.017-1.008,0.846-1.815,1.855-1.799l8.587,0.126
								c1.008,0.015,1.814,0.846,1.799,1.854l-0.34,23.198c-0.017,1.01-0.845,1.814-1.855,1.8l-8.585-0.127
								c-1.011-0.015-1.816-0.843-1.8-1.853L189.305,225.265z" />
                                            </g>
                                            <path style="opacity:0.3;fill:#314B5C;"
                                                d="M193.857,228.461c0.841,0.012,1.514,0.705,1.5,1.547l-0.283,19.371
							c-0.006,0.385-0.157,0.732-0.396,0.996l4.675,0.069c1.01,0.014,1.838-0.79,1.855-1.8l0.34-23.198
							c0.016-1.008-0.791-1.839-1.799-1.854l-8.587-0.126c-1.01-0.016-1.839,0.792-1.855,1.799l-0.043,3.128L193.857,228.461z" />
                                            <path style="opacity:0.3;fill:#314B5C;"
                                                d="M196.482,226.456c0.916,0.013,1.648,0.765,1.633,1.681l-0.307,21.053
							c-0.01,0.491-0.233,0.924-0.575,1.222l2.119,0.031c1.01,0.014,1.838-0.79,1.855-1.8l0.34-23.198
							c0.016-1.008-0.791-1.839-1.799-1.854l-8.587-0.126c-1.01-0.016-1.839,0.792-1.855,1.799l-0.015,1.085L196.482,226.456z" />
                                            <path style="opacity:0.3;fill:#FFFFFF;" d="M189.194,231.72c0.004-0.275,0.23-0.496,0.506-0.492l3.172,0.046
							c0.275,0.003,0.496,0.232,0.494,0.507l-0.184,12.471c-0.005,0.276-0.232,0.496-0.508,0.492l-3.171-0.046
							c-0.276-0.004-0.496-0.232-0.492-0.506L189.194,231.72z" />
                                        </g>
                                    </g>
                                    <g>
                                        <g>
                                            <g>
                                                <path style="fill:#314B5C;" d="M153.349,228.273c0.012-0.7-0.548-1.277-1.25-1.289l-5.97-0.086
								c-0.702-0.01-1.278,0.55-1.289,1.252l-0.235,16.126c-0.011,0.702,0.547,1.277,1.249,1.288l5.972,0.087
								c0.699,0.011,1.276-0.549,1.285-1.251L153.349,228.273z" />
                                            </g>
                                            <path style="opacity:0.3;fill:#314B5C;"
                                                d="M150.122,230.401c-0.585-0.008-1.066,0.458-1.075,1.044l-0.196,13.466
							c-0.005,0.269,0.094,0.513,0.254,0.7l-3.251-0.047c-0.702-0.011-1.26-0.586-1.249-1.288l0.235-16.126
							c0.011-0.702,0.587-1.262,1.289-1.252l5.97,0.086c0.702,0.012,1.262,0.589,1.25,1.289l-0.031,2.175L150.122,230.401z" />
                                            <path style="opacity:0.3;fill:#314B5C;"
                                                d="M148.339,228.952c-0.636-0.008-1.16,0.5-1.17,1.137l-0.215,14.636
							c-0.006,0.342,0.141,0.645,0.375,0.861l-1.475-0.021c-0.702-0.011-1.26-0.586-1.249-1.288l0.235-16.126
							c0.011-0.702,0.587-1.262,1.289-1.252l5.97,0.086c0.702,0.012,1.262,0.589,1.25,1.289l-0.01,0.753L148.339,228.952z" />
                                            <path style="opacity:0.3;fill:#FFFFFF;" d="M153.297,232.762c0.002-0.19-0.151-0.349-0.343-0.353l-2.207-0.032
							c-0.19-0.003-0.35,0.151-0.35,0.342l-0.128,8.67c-0.004,0.19,0.15,0.347,0.341,0.35l2.207,0.032
							c0.189,0.003,0.349-0.149,0.35-0.338L153.297,232.762z" />
                                        </g>
                                        <g>
                                            <g>
                                                <path style="fill:#314B5C;" d="M167.053,224.939c0.015-1.009-0.788-1.839-1.798-1.855l-8.588-0.124
								c-1.01-0.016-1.84,0.792-1.854,1.799l-0.342,23.199c-0.015,1.008,0.793,1.837,1.802,1.852l8.587,0.126
								c1.008,0.015,1.837-0.79,1.854-1.798L167.053,224.939z" />
                                            </g>
                                            <path style="opacity:0.3;fill:#314B5C;"
                                                d="M162.413,227.999c-0.843-0.013-1.536,0.66-1.547,1.501l-0.285,19.371
							c-0.007,0.386,0.137,0.736,0.369,1.007l-4.677-0.068c-1.009-0.015-1.816-0.844-1.802-1.852l0.342-23.199
							c0.014-1.007,0.844-1.815,1.854-1.799l8.588,0.124c1.01,0.016,1.813,0.847,1.798,1.855l-0.044,3.128L162.413,227.999z" />
                                            <path style="opacity:0.3;fill:#314B5C;"
                                                d="M159.846,225.916c-0.916-0.013-1.667,0.716-1.681,1.634l-0.309,21.052
							c-0.009,0.491,0.2,0.931,0.534,1.238l-2.117-0.032c-1.009-0.015-1.816-0.844-1.802-1.852l0.342-23.199
							c0.014-1.007,0.844-1.815,1.854-1.799l8.588,0.124c1.01,0.016,1.813,0.847,1.798,1.855l-0.016,1.083L159.846,225.916z" />
                                            <path style="opacity:0.3;fill:#FFFFFF;" d="M166.976,231.395c0.006-0.276-0.215-0.503-0.492-0.508l-3.172-0.045
							c-0.275-0.004-0.502,0.216-0.504,0.492l-0.183,12.471c-0.007,0.275,0.214,0.501,0.489,0.506l3.174,0.047
							c0.275,0.004,0.5-0.216,0.506-0.492L166.976,231.395z" />
                                        </g>
                                    </g>
                                    <polyline
                                        style="fill:none;stroke:#FFFFFF;stroke-width:1.0881;stroke-linecap:round;stroke-miterlimit:10;"
                                        points="
					193.116,248.671 191.032,248.641 191.296,230.585 				" />
                                    <polyline
                                        style="fill:none;stroke:#FFFFFF;stroke-width:1.0881;stroke-linecap:round;stroke-miterlimit:10;"
                                        points="
					164.213,248.247 162.128,248.216 162.394,230.161 				" />
                                    <polyline
                                        style="fill:none;stroke:#FFFFFF;stroke-width:0.544;stroke-linecap:round;stroke-miterlimit:10;"
                                        points="
					206.196,244.904 204.11,244.874 204.294,232.514 				" />
                                    <polyline
                                        style="fill:none;stroke:#FFFFFF;stroke-width:0.544;stroke-linecap:round;stroke-miterlimit:10;"
                                        points="
					152.316,244.113 150.229,244.081 150.411,231.721 				" />
                                </g>
                                <g>
                                    <g>
                                        <g>
                                            <path style="fill:#AC764A;" d="M175.364,241.928c0.026,0.72-0.538,1.327-1.259,1.353l0,0
							c-0.718,0.026-1.324-0.538-1.348-1.258l-0.15-4.191c-0.026-0.718,0.533-1.324,1.257-1.349l0,0
							c0.719-0.026,1.325,0.538,1.351,1.255L175.364,241.928z" />
                                        </g>
                                    </g>
                                    <g>
                                        <g>
                                            <path style="fill:#AC764A;" d="M178.503,241.613c0.032,0.85-0.53,1.559-1.25,1.584l0,0c-0.719,0.027-1.327-0.641-1.358-1.491
							l-0.176-4.942c-0.028-0.846,0.529-1.557,1.25-1.582l0,0c0.719-0.025,1.328,0.642,1.357,1.49L178.503,241.613z" />
                                        </g>
                                    </g>
                                    <g>
                                        <g>
                                            <path style="fill:#AC764A;" d="M181.849,241.863c0.026,0.663-0.539,1.222-1.263,1.247l0,0
							c-0.719,0.024-1.323-0.49-1.348-1.154l-0.134-3.855c-0.022-0.661,0.54-1.22,1.263-1.246l0,0
							c0.715-0.026,1.322,0.491,1.343,1.151L181.849,241.863z" />
                                        </g>
                                    </g>
                                    <g>
                                        <g>
                                            <path style="fill:#AC764A;" d="M184.924,241.942c0.018,0.575-0.546,1.062-1.27,1.086l0,0
							c-0.717,0.025-1.321-0.417-1.337-0.993l-0.097-2.401c-0.02-0.575,0.548-1.061,1.269-1.086l0,0
							c0.718-0.025,1.321,0.418,1.34,0.994L184.924,241.942z" />
                                        </g>
                                    </g>
                                </g>
                            </g>
                        </g>
                    </g>
                    <g>
                        <path style="opacity:0.3;fill:#448C96;"
                            d="M196.945,358.829c0,6.759,37.684,12.239,84.171,12.239
		c46.487,0,84.173-5.48,84.173-12.239c0-6.76-37.685-12.24-84.173-12.24C234.629,346.589,196.945,352.069,196.945,358.829z" />
                        <g>
                            <g>
                                <g>
                                    <path style="fill:#F9BB8D;" d="M273.699,247.029c0,0-0.926,1.429-2.548,3.93c-0.401,0.623-0.845,1.312-1.329,2.063
					c-0.38,0.69-0.791,1.436-1.23,2.233c-0.875,1.634-1.93,3.284-2.975,5.562c-0.535,1.094-1.092,2.233-1.668,3.413
					c-0.287,0.591-0.58,1.193-0.879,1.803c-0.275,0.629-0.555,1.268-0.838,1.915c-1.117,2.602-2.389,5.293-3.508,8.209
					c-1.158,2.892-2.385,5.87-3.498,8.972c-0.573,1.544-1.15,3.1-1.73,4.662c-0.551,1.578-1.104,3.163-1.656,4.747
					c-1.123,3.163-2.168,6.363-3.193,9.516c-1.055,3.143-1.982,6.278-2.936,9.295c-0.906,3.034-1.783,5.967-2.613,8.749
					c-0.793,2.796-1.541,5.439-2.232,7.879c-1.351,4.89-2.438,8.98-3.165,11.844c-0.718,2.853-1.128,4.484-1.128,4.484l-7.916-1.482
					c0,0,0.25-1.708,0.689-4.695c0.444-2.974,1.125-7.205,1.992-12.28c0.449-2.535,0.938-5.281,1.453-8.185
					c0.557-2.899,1.144-5.957,1.754-9.121c0.656-3.156,1.277-6.43,2.029-9.739c0.723-3.313,1.458-6.683,2.283-10.041
					c0.402-1.682,0.806-3.363,1.207-5.038c0.436-1.672,0.87-3.336,1.301-4.988c0.826-3.311,1.791-6.552,2.698-9.697
					c0.86-3.151,1.925-6.173,2.835-9.056c0.234-0.72,0.465-1.431,0.691-2.131c0.256-0.698,0.508-1.385,0.756-2.061
					c0.499-1.353,0.982-2.66,1.445-3.915c0.846-2.468,2.02-4.942,2.92-7.054c0.471-1.066,0.91-2.064,1.317-2.986
					c0.411-0.805,0.788-1.544,1.129-2.212c1.364-2.651,2.144-4.166,2.144-4.166L273.699,247.029z" />
                                </g>
                            </g>
                            <path style="fill:#A1D2D9;" d="M230.268,334.363c-0.541,2.455-0.941,4.643-1.283,6.27c-0.506,2.432-0.264,3.905-0.264,3.905
			l7.789,2.051c0,0,0.443-1.315,1.223-3.615c0.525-1.539,1.21-3.524,2.025-5.841L230.268,334.363z" />
                            <path style="fill:#EBEBEB;" d="M236.986,336.324c0.342,3.156-0.97,7.332-3.332,9.203c-0.107,0.084-0.215,0.146-0.322,0.225
			l3.178,0.837c0,0,0.443-1.315,1.223-3.615c0.525-1.539,1.21-3.524,2.025-5.841L236.986,336.324z" />
                            <path style="fill:#343C40;" d="M244.738,319.548c6.533-15.048,25.233-64.747,32.846-68.806
			c7.402-3.946-26.147-23.774-26.147-23.774s-7.131,23.092-18.105,89.588L244.738,319.548z" />
                            <path style="fill:#DADADA;"
                                d="M211.572,351.96c6.965-3.233,14.422-8.72,16.425-8.885c1.339-0.112,0.839,1.484,3.21,2.078
			c2.744,0.688,5.67,0.422,5.67,0.422s0.711,0.545-0.107,2.723c-0.818,2.179,0.818,5.669-1.605,7.321
			c-2.423,1.652-4.578,0.92-6.874,1.799c-1.903,0.726-4.736,2.161-7.242,2.443C212.654,360.802,207.672,353.769,211.572,351.96z" />
                            <path style="fill:#DADADA;" d="M236.141,351.821c-5.907-4.314-9.377,2.437-14.441,4.734c-3.225,1.462-7.67,0.865-10.973-0.906
			c1.325,2.374,5.182,4.788,10.322,4.212c2.506-0.282,5.339-1.717,7.242-2.443c2.296-0.879,4.451-0.147,6.874-1.799
			c1.226-0.837,1.412-2.147,1.403-3.519C236.426,352.016,236.284,351.926,236.141,351.821z" />
                            <g>
                                <g>
                                    <path style="fill:#F9BB8D;" d="M308.592,170.295c0,0,0.205-1.207,0.563-3.318c0.369-2.093,0.912-5.068,1.627-8.63
					c0.718-3.562,1.603-7.711,2.701-12.156c0.543-2.222,1.162-4.522,1.828-6.858c0.691-2.331,1.472-4.752,2.326-7.098
					c0.764-2.18,1.709-4.611,2.635-6.84c0.931-2.23,1.91-4.391,2.891-6.461c0.991-2.066,1.992-4.036,2.971-5.887
					c0.989-1.846,1.955-3.571,2.868-5.149c0.923-1.574,1.79-3.003,2.575-4.26c0.793-1.253,1.498-2.339,2.091-3.227
					c0.607-0.885,1.085-1.581,1.411-2.056c0.35-0.49,0.537-0.751,0.537-0.751l5.004,3.386c0,0-0.139,0.235-0.397,0.676
					c-0.264,0.47-0.65,1.158-1.143,2.035c-0.483,0.888-1.059,1.976-1.703,3.233c-0.639,1.262-1.34,2.694-2.082,4.269
					c-0.733,1.579-1.501,3.299-2.279,5.131c-0.769,1.836-1.547,3.783-2.305,5.811c-0.746,2.032-1.48,4.139-2.16,6.296
					c-0.674,2.162-1.278,4.22-1.877,6.588c-0.601,2.175-0.938,4.372-1.326,6.586c-0.344,2.227-0.65,4.432-0.898,6.59
					c-0.506,4.311-0.855,8.38-1.113,11.872c-0.257,3.492-0.419,6.41-0.52,8.445c-0.086,2.018-0.135,3.172-0.135,3.172
					L308.592,170.295z" />
                                </g>
                            </g>
                            <g>
                                <g>
                                    <path style="fill:#F9BB8D;" d="M296.637,237.458c0,0,0.779,1.515,2.143,4.166c0.341,0.668,0.718,1.407,1.129,2.212
					c0.407,0.922,0.847,1.92,1.317,2.986c0.899,2.113,2.074,4.587,2.92,7.054c0.463,1.255,0.946,2.562,1.446,3.915
					c0.247,0.676,0.499,1.363,0.755,2.061c0.227,0.7,0.457,1.41,0.691,2.13c0.911,2.883,1.975,5.905,2.836,9.056
					c0.906,3.146,1.871,6.386,2.697,9.697c0.431,1.652,0.865,3.317,1.301,4.988c0.4,1.675,0.805,3.356,1.208,5.038
					c0.824,3.358,1.56,6.727,2.282,10.041c0.751,3.309,1.373,6.583,2.029,9.739c0.608,3.164,1.197,6.221,1.754,9.121
					c0.516,2.904,1.003,5.65,1.453,8.185c0.867,5.075,1.547,9.306,1.991,12.28c0.439,2.988,0.69,4.695,0.69,4.695l-7.918,1.482
					c0,0-0.41-1.63-1.127-4.484c-0.727-2.864-1.814-6.955-3.166-11.844c-0.69-2.44-1.439-5.083-2.23-7.879
					c-0.831-2.781-1.707-5.714-2.613-8.749c-0.953-3.017-1.881-6.152-2.935-9.295c-1.027-3.153-2.07-6.353-3.193-9.516
					c-0.553-1.585-1.105-3.169-1.656-4.747c-0.58-1.562-1.157-3.118-1.73-4.662c-1.113-3.103-2.34-6.081-3.498-8.972
					c-1.119-2.917-2.391-5.607-3.508-8.21c-0.283-0.647-0.563-1.286-0.838-1.915c-0.298-0.61-0.591-1.212-0.879-1.803
					c-0.576-1.179-1.133-2.319-1.668-3.413c-1.045-2.278-2.1-3.928-2.974-5.562c-0.44-0.797-0.852-1.543-1.231-2.233
					c-0.484-0.751-0.928-1.44-1.329-2.063c-1.622-2.501-2.548-3.93-2.548-3.93L296.637,237.458z" />
                                </g>
                            </g>
                            <path style="fill:#A1D2D9;" d="M323.67,334.363c0.539,2.455,0.941,4.643,1.284,6.27c0.505,2.432,0.264,3.905,0.264,3.905
			l-7.79,2.051c0,0-0.443-1.315-1.221-3.615c-0.527-1.539-1.212-3.524-2.025-5.841L323.67,334.363z" />
                            <path style="fill:#EBEBEB;" d="M316.951,336.324c-0.342,3.156,0.969,7.332,3.332,9.203c0.105,0.084,0.215,0.146,0.322,0.225
			l-3.178,0.837c0,0-0.443-1.315-1.221-3.615c-0.527-1.539-1.212-3.524-2.025-5.841L316.951,336.324z" />
                            <path style="fill:#343C40;" d="M309.198,319.548c-6.532-15.048-25.233-64.747-32.845-68.806c-7.4-3.946,25.82-23.148,25.82-23.148
			s7.457,22.466,18.432,88.962L309.198,319.548z" />
                            <path style="fill:#432918;" d="M344.4,149.454c-12.869,8.851-42.655,44.688-36.775,53.237c5.879,8.547,50.46-5.775,63.33-14.626
			c5.68-3.907,21.226-17.003,9.016-34.755C368.926,137.248,347.768,147.136,344.4,149.454z" />
                            <path style="fill:#F9BB8D;" d="M329.293,177.971c0,0,5.516-0.268,7.717-4.719c0.641-2.321,9.404,13.51,7.084,12.517
			c-5.203,1.18-6.207,4.695-6.207,4.695l0.977,6.6l-9.438,8.493l-16.654-24.215l11.68-5.237L329.293,177.971z" />
                            <path style="fill:#E1A578;"
                                d="M344.094,185.769c-2.695,0.61-4.258,1.847-5.145,2.898c-3.01-1.511-4.923-3.313-6.35-6.482
			c-0.926-2.057-0.743-3.783-0.584-4.798c1.718-0.589,3.824-1.767,4.994-4.135C337.65,170.931,346.414,186.762,344.094,185.769z" />
                            <path style="fill:#343C40;" d="M251.438,226.832c0,14.602,12.289,23.91,24.916,23.91c12.627,0,25.82-5.828,25.82-23.148
			c-1.393-6.996-44.078-12.407-44.078-12.407S254.141,218.14,251.438,226.832z" />
                            <path style="fill:#F9BB8D;" d="M281.008,188.737c6.533,14.488,11.145,26.253,22.517,37.706c-0.632,2.592-0.48,6.754,1.12,9.948
			c-13.593-1.167-30.997-12.254-46.55-21.203C265.5,199.679,273.781,194.179,281.008,188.737z" />
                            <path style="fill:#DD5B6C;" d="M260.997,205.763c15.248-20.742,42.281-26.422,42.281-26.422l22.491-5.795l2.902,3.523
			c0,0-6.959,5.081-1.954,12.361c5.001,7.272,11.886,2.079,11.886,2.079l3.08,4.321l-16.601,20.851c0,0-3.028,4.199-6.749,3.981
			c-3.719-0.217-9.658,0-9.658,0s-3.113,3.286-4.03,6.934c-0.988,3.937,0.204,8.278,0,8.796
			C291.053,235.224,257.002,211.195,260.997,205.763z" />
                            <path style="fill:#C02B35;" d="M326.967,174.999l1.705,2.069c0,0-6.959,5.081-1.954,12.361c5.001,7.272,11.886,2.079,11.886,2.079
			l1.662,2.259c0,0-9.259,7.586-16.131-2.406C317.354,181.501,326.967,174.999,326.967,174.999z" />
                            <path style="fill:#F9BB8D;" d="M345.373,154.995c-2.433,1.673-5.799,4.267-7.311,6.224c-5.392,6.979-5.85,17.7-2.529,22.53
			c2.831,4.116,14.873,8.888,22.433,6.408c2.358-0.773,6.163-2.826,8.526-4.451c13.695-9.419,17.668-18.379,9.988-29.544
			C368.805,145.002,359.066,145.577,345.373,154.995z" />
                            <path style="fill:#432918;" d="M379.125,154.606c9.108,13.245,3.371,22.278-5.611,30.976c-1.773-1.715-4.032,2.087-4.838,2.504
			c0,0-5.527,2.48-6.633-0.642c-1.021-2.889,1.541-4.174,4.902-6.488c3.036-2.087,4.193-5.778,2.89-9.23
			c-10.349-2.92-14.642-15.224-21.231-13.73c-3.186,0.765-3.918,1.357-6.189-0.146c-3.485-2.303,1.462-5.818,1.462-5.818
			c0.68-0.605,1.55,0.33,0.586-1.938C357.315,143.81,370.016,141.364,379.125,154.606z" />
                            <path style="fill:#D2BBC7;" d="M304.492,212.925c0,0,2.865-6.89,0.934-10.249c-1.932-3.358-6.144-4.645-6.144-4.645
			s2.161,3.426,3.534,6.967C304.188,208.539,304.492,212.925,304.492,212.925z" />
                            <path style="fill:#DADADA;"
                                d="M342.365,351.96c-6.967-3.233-14.422-8.72-16.425-8.885c-1.34-0.112-0.84,1.484-3.208,2.078
			c-2.744,0.688-5.672,0.422-5.672,0.422s-0.713,0.545,0.105,2.723c0.82,2.179-0.815,5.669,1.607,7.321
			c2.424,1.652,4.577,0.92,6.875,1.799c1.902,0.726,4.734,2.161,7.24,2.443C341.282,360.802,346.264,353.769,342.365,351.96z" />
                            <path style="fill:#DADADA;" d="M317.797,351.821c5.907-4.314,9.377,2.437,14.441,4.734c3.225,1.462,7.67,0.865,10.973-0.906
			c-1.325,2.374-5.182,4.788-10.322,4.212c-2.506-0.282-5.338-1.717-7.24-2.443c-2.298-0.879-4.451-0.147-6.875-1.799
			c-1.227-0.837-1.412-2.147-1.404-3.519C317.512,352.016,317.653,351.926,317.797,351.821z" />
                            <path style="fill:#F9BB8D;" d="M362.793,185.777c-2.232,1.536-4.194,3.458-3.267,4.806c0.927,1.347,2.894,2.258,6.189,1.146
			c5.098-1.719,4.51-4.896,3.582-6.245C368.371,184.138,365.029,184.239,362.793,185.777z" />
                            <path style="fill:#F9BB8D;" d="M343.951,158.379c-2.232,1.538-4.73,2.679-5.656,1.332c-0.928-1.348-1.129-3.588,1.09-6.268
			c3.426-4.146,6.238-2.38,7.166-1.031C347.479,153.76,346.187,156.842,343.951,158.379z" />
                            <path style="fill:#432918;" d="M358.394,175.494c-0.841,0.578-1.169,1.559-0.736,2.188c0.435,0.631,1.468,0.674,2.308,0.096
			c0.842-0.578,1.172-1.558,0.738-2.189C360.27,174.958,359.234,174.915,358.394,175.494z" />
                            <g>
                                <g>
                                    <path style="fill:#432918;" d="M364.528,179.333c0,0,0.037-0.119,0.102-0.327c0.051-0.212,0.106-0.481,0.129-0.838
					c0.035-0.699-0.051-1.642-0.367-2.475c-0.089-0.204-0.17-0.407-0.289-0.584c-0.102-0.187-0.234-0.338-0.318-0.509
					c-0.105-0.149-0.171-0.326-0.256-0.469c-0.081-0.151-0.156-0.299-0.239-0.428c-0.076-0.142-0.157-0.264-0.238-0.375
					c-0.074-0.123-0.149-0.229-0.221-0.309c-0.137-0.171-0.226-0.303-0.226-0.303l0.046-0.145c0,0,0.14-0.04,0.399-0.049
					c0.134-0.013,0.287,0.003,0.461,0.049c0.177,0.041,0.381,0.097,0.569,0.214c0.208,0.098,0.401,0.243,0.585,0.421
					c0.209,0.162,0.34,0.391,0.494,0.619c0.109,0.245,0.225,0.503,0.27,0.777c0.065,0.27,0.109,0.541,0.141,0.811
					c0.132,1.077,0.008,2.137-0.283,2.868c-0.137,0.361-0.293,0.669-0.419,0.846c-0.13,0.174-0.205,0.273-0.205,0.273
					L364.528,179.333z" />
                                </g>
                            </g>
                            <path style="fill:#432918;" d="M351.581,165.586c-0.841,0.579-1.874,0.536-2.308-0.095c-0.434-0.63-0.103-1.611,0.736-2.188
			c0.84-0.579,1.875-0.537,2.309,0.094C352.752,164.027,352.422,165.008,351.581,165.586z" />
                            <g>
                                <g>
                                    <path style="fill:#432918;" d="M350.174,158.333c0,0,0.119-0.034,0.328-0.094c0.21-0.054,0.555-0.09,0.939-0.088
					c0.787-0.009,1.821,0.254,2.779,0.762c0.24,0.127,0.477,0.266,0.706,0.423c0.239,0.14,0.44,0.339,0.63,0.529
					c0.156,0.226,0.323,0.43,0.4,0.683c0.1,0.235,0.168,0.467,0.184,0.696c0.042,0.218,0.021,0.429-0.004,0.608
					c-0.019,0.179-0.059,0.328-0.119,0.449c-0.102,0.239-0.188,0.355-0.188,0.355l-0.152-0.01c0,0-0.092-0.129-0.202-0.318
					c-0.05-0.095-0.122-0.203-0.21-0.316c-0.074-0.115-0.16-0.235-0.265-0.356c-0.09-0.124-0.202-0.247-0.314-0.376
					c-0.103-0.131-0.245-0.255-0.346-0.408c-0.131-0.139-0.225-0.317-0.362-0.479c-0.122-0.175-0.282-0.323-0.441-0.479
					c-0.663-0.594-1.513-1.011-2.179-1.229c-0.166-0.042-0.328-0.104-0.461-0.119c-0.139-0.02-0.258-0.056-0.367-0.06
					c-0.217-0.014-0.342-0.022-0.342-0.022L350.174,158.333z" />
                                </g>
                            </g>
                            <path style="fill:#D38A5A;" d="M350.373,173.208c-0.635-0.919-1.63-1.401-2.58-1.37c1.182-0.692,2.705-0.387,3.484,0.747
			c0.779,1.135,0.522,2.667-0.549,3.523C351.098,175.23,351.004,174.128,350.373,173.208z" />
                            <g>
                                <path style="fill:#D1534A;" d="M341.081,172.983c0,0-1.831,3.375,0.153,6.262c2.032,2.952,6.064,2.691,6.064,2.691
				s-1.725-0.382-4.092-3.827C340.893,174.743,341.081,172.983,341.081,172.983z" />
                                <path style="fill:#DE6050;" d="M341.081,172.983c0,0,0.87,1.384,3.021,3.023c0.194,0.307,0.275,1.462,0.275,1.462
				s1.05,0.466,1.395,0.912c1.102,2.891,1.527,3.557,1.527,3.557s-1.725-0.382-4.092-3.827
				C340.893,174.743,341.081,172.983,341.081,172.983z" />
                            </g>
                            <g>
                                <path style="fill:#F9BB8D;" d="M352.48,82.772c-0.435,0.194-3.547,1.46-5.533,3.924c-2.138,2.271-3.15,5.741-2.967,5.886
				c0.084,0.408,1.036,1.465,1.588,0.659c1.943-2.848,5.344-7.363,7.317-8.004c0.915-0.575,1.796-1.333,1.603-2.641
				C354.408,82.049,353.73,82.108,352.48,82.772z" />
                                <path style="fill:#E1A578;" d="M351.236,81.745c-0.478,0.216-4.068,1.559-6.404,4.351c-2.505,2.56-3.758,6.571-3.529,6.738
				c0.109,0.469,2.147,2.346,2.628,1.311c1.157-3.727,5.756-8.792,7.93-9.441c1.02-0.612,1.972-1.474,1.685-3.071
				C353.426,80.964,352.656,81.01,351.236,81.745z" />
                                <path style="fill:#F9BB8D;" d="M350.908,81.35c-0.48,0.215-4.071,1.558-6.407,4.35c-2.507,2.561-3.758,6.571-3.528,6.739
				c0.108,0.47,2.147,2.347,2.625,1.311c1.16-3.727,5.756-8.792,7.932-9.442c1.022-0.611,1.974-1.473,1.688-3.07
				C353.096,80.568,352.324,80.616,350.908,81.35z" />
                                <path style="fill:#E1A578;" d="M350.198,81.686c-0.44,0.187-3.581,1.424-5.583,3.882c-2.162,2.263-3.183,5.748-2.998,5.892
				c0.08,0.41,1.746,2.101,2.125,1.201c0.854-3.231,4.84-7.886,6.826-8.501c0.914-0.553,1.563-1.55,1.376-2.864
				C351.863,80.751,351.455,81.046,350.198,81.686z" />
                                <path style="fill:#F9BB8D;" d="M349.68,81.499c-0.436,0.193-3.548,1.461-5.532,3.924c-2.14,2.271-3.149,5.74-2.966,5.886
				c0.082,0.409,1.745,2.094,2.127,1.196c0.854-3.222,4.803-7.898,6.777-8.541c0.916-0.576,1.795-1.333,1.602-2.641
				C351.605,80.775,350.93,80.834,349.68,81.499z" />
                                <path style="fill:#E1A578;" d="M347.795,82.685c-0.416,0.175-3.281,1.393-5.074,3.673c-1.941,2.11-2.811,5.28-2.652,5.412
				c0.065,0.376,1.492,1.965,1.811,1.143c0.648-2.938,4.253-7.431,6.143-8.059c0.859-0.544,1.503-1.442,1.381-2.573
				C349.349,81.811,348.962,82.075,347.795,82.685z" />
                                <path style="fill:#F9BB8D;" d="M347.35,82.526c-0.412,0.184-3.254,1.427-5.027,3.712c-1.924,2.117-2.781,5.276-2.627,5.407
				c0.064,0.373,1.492,1.96,1.81,1.141c0.65-2.931,4.223-7.441,6.098-8.095c0.86-0.563,1.712-1.263,1.583-2.391
				C349.135,81.828,348.51,81.896,347.35,82.526z" />
                                <path style="fill:#F9BB8D;" d="M336.836,94.669c-2.904,5.502-4.788,9.792-2.938,10.033c1.249,0.163,3.211-1.534,5.949-2.721
				c3.687-1.598,3-4.993,5.566-8.536c0.691-0.955,2.143-2.483,2.107-3.297c-0.026-0.65-5.113-3.743-5.562-3.038
				C341.066,88.518,338.252,91.986,336.836,94.669z" />
                                <path style="fill:#F9BB8D;"
                                    d="M344.598,93.366c-0.355,0.894-3.915,7.183-3.07,7.521c0.593,0.235,4.227-3.609,6.637-5.794
				c1.039-0.943,2.057-0.957,2.165-1.226c0.355-0.895-0.632-2.021-1.909-2.265C347.311,91.388,344.953,92.471,344.598,93.366z" />
                                <path style="fill:#E1A578;" d="M345.256,92.772c0,0-1.557,1.229-2.183,2.09c-0.628,0.86-2.22,2.604-2.22,2.604
				s1.408-2.741,1.867-3.232C343.182,93.743,345.256,92.772,345.256,92.772z" />
                            </g>
                            <path style="fill:#C02B35;" d="M324.535,153.721c0,0,0.158,16.821,1.234,19.824c1.268,3.533-16.497,4.737-18.904,4.871
			c-3.035-6.945,4.625-26.069,4.625-26.069L324.535,153.721z" />
                            <g>
                                <g>
                                    <path style="fill:#F9BB8D;" d="M344.233,200.891c0,0,0.494,1.12,1.357,3.08c0.843,1.95,2.026,4.733,3.389,8.101
					c1.361,3.369,2.904,7.321,4.434,11.636c0.77,2.154,1.518,4.416,2.246,6.733c0.707,2.326,1.387,4.777,1.964,7.207
					c0.563,2.24,1.11,4.791,1.564,7.161c0.451,2.374,0.822,4.717,1.142,6.986c0.31,2.27,0.558,4.467,0.759,6.55
					c0.189,2.085,0.332,4.057,0.438,5.877c0.096,1.822,0.158,3.493,0.193,4.974c0.029,1.483,0.037,2.777,0.031,3.845
					c-0.021,1.074-0.036,1.918-0.047,2.493c-0.023,0.602-0.036,0.922-0.036,0.922l-6.04-0.073c0,0-0.016-0.272-0.041-0.784
					c-0.039-0.537-0.096-1.324-0.167-2.327c-0.085-1.008-0.204-2.233-0.356-3.637c-0.161-1.405-0.364-2.987-0.61-4.71
					c-0.257-1.722-0.561-3.581-0.919-5.539c-0.369-1.956-0.791-4.01-1.273-6.12c-0.495-2.107-1.041-4.271-1.66-6.446
					c-0.627-2.175-1.255-4.227-2.059-6.534c-0.694-2.145-1.623-4.166-2.516-6.23c-0.939-2.047-1.896-4.058-2.877-5.997
					c-1.949-3.878-3.897-7.469-5.603-10.526c-1.708-3.058-3.178-5.583-4.214-7.337c-1.039-1.733-1.631-2.724-1.631-2.724
					L344.233,200.891z" />
                                </g>
                            </g>
                            <g>
                                <path style="fill:#F9BB8D;" d="M356.037,296.382c0.258-0.402,2.16-3.171,2.461-6.32c0.537-3.075-0.528-6.528-0.762-6.548
				c-0.291-0.295-1.67-0.654-1.688,0.322c-0.055,3.448-0.41,9.089-1.706,10.71c-0.446,0.985-0.765,2.101,0.114,3.087
				C354.828,298.046,355.361,297.625,356.037,296.382z" />
                                <path style="fill:#E1A578;" d="M357.098,297.91c0.283-0.445,2.542-3.542,2.955-7.158c0.686-3.517-0.477-7.555-0.758-7.569
				c-0.352-0.333-3.086-0.778-2.917,0.351c1.083,3.751,0.031,10.509-1.427,12.247c-0.516,1.073-0.835,2.316,0.279,3.492
				C355.702,299.765,356.319,299.302,357.098,297.91z" />
                                <path style="fill:#F9BB8D;" d="M357.592,298.057c0.284-0.443,2.541-3.539,2.955-7.158c0.686-3.517-0.477-7.554-0.76-7.568
				c-0.35-0.332-3.085-0.779-2.916,0.351c1.083,3.75,0.031,10.508-1.426,12.248c-0.516,1.072-0.836,2.315,0.281,3.492
				C356.195,299.914,356.815,299.451,357.592,298.057z" />
                                <path style="fill:#E1A578;" d="M358.246,297.772c0.266-0.396,2.207-3.158,2.527-6.313c0.559-3.078-0.506-6.55-0.739-6.568
				c-0.294-0.298-2.614-0.795-2.437,0.167c1.066,3.167,0.301,9.246-1.023,10.853c-0.459,0.964-0.449,2.153,0.43,3.148
				C357.371,299.47,357.549,299,358.246,297.772z" />
                                <path style="fill:#F9BB8D;" d="M358.781,297.644c0.259-0.401,2.158-3.17,2.461-6.32c0.537-3.074-0.528-6.526-0.76-6.547
				c-0.295-0.294-2.611-0.788-2.438,0.171c1.06,3.161,0.336,9.239-0.958,10.86c-0.448,0.985-0.766,2.101,0.114,3.087
				C357.57,299.309,358.104,298.888,358.781,297.644z" />
                                <path style="fill:#E1A578;" d="M359.509,297.225c0.251-0.375,1.974-2.969,2.215-5.86c0.46-2.829-0.56-5.954-0.763-5.977
				c-0.261-0.279-2.326-0.82-2.142,0.042c1.075,2.811,0.536,8.545-0.693,10.109c-0.419,0.927-0.464,2.03,0.263,2.908
				C358.691,298.809,358.869,298.375,359.509,297.225z" />
                                <path style="fill:#F9BB8D;" d="M359.967,297.111c0.242-0.38,1.932-2.982,2.156-5.867c0.439-2.826-0.582-5.935-0.783-5.959
				c-0.26-0.277-2.322-0.816-2.139,0.043c1.068,2.804,0.568,8.538-0.637,10.114c-0.41,0.944-0.734,1.997-0.006,2.869
				C358.86,298.677,359.346,298.277,359.967,297.111z" />
                                <path style="fill:#F9BB8D;" d="M362.26,279.582c-0.603-6.194-1.391-10.813-3.068-9.996c-1.131,0.551-1.836,3.049-3.471,5.546
				c-2.199,3.362,0.244,5.819,0.051,10.19c-0.052,1.177-0.424,3.252,0.051,3.913c0.382,0.528,6.332,0.314,6.317-0.523
				C362.113,287.043,362.553,282.6,362.26,279.582z" />
                                <path style="fill:#E1A578;" d="M356.713,276.615c0,0,0.596,1.893,1.178,2.784c0.584,0.891,1.648,2.999,1.648,2.999
				s-2.063-2.288-2.357-2.893C356.885,278.899,356.713,276.615,356.713,276.615z" />
                                <path style="fill:#E1A578;"
                                    d="M359.845,284.372c-0.005-0.962,0.456-7.211,1.368-7.215c0.637-0.003,1.141,4.001,2.582,6.916
				c0.621,1.259,1.563,1.645,1.564,1.934c0.002,0.963-1.328,1.649-2.605,1.409C361.643,287.206,359.847,285.336,359.845,284.372z" />
                                <path style="fill:#F9BB8D;"
                                    d="M359.633,282.036c-0.002-0.961,0.848-5.946,1.758-5.949c0.637-0.003,1.719,4.181,2.874,7.822
				c0.423,1.338,1.563,1.645,1.563,1.934c0.004,0.963-1.326,1.649-2.604,1.409C362.11,287.043,359.637,282.999,359.633,282.036z" />
                            </g>
                            <path style="fill:#C02B35;" d="M341.194,226.238c0,0-9.728-12.464-12.31-14.333c4.013-9.478,10.887-14.606,12.799-16.077
			c6.427,4.019,11.052,24.177,11.052,24.177L341.194,226.238z" />
                        </g>
                    </g>

                </g>

</svg>